<?xml version="1.0" encoding="UTF-8" standalone="no"?>
<!DOCTYPE svg PUBLIC "-//W3C//DTD SVG 1.1//EN" "http://www.w3.org/Graphics/SVG/1.1/DTD/svg11.dtd">
<svg width="100%" height="100%" viewBox="0 0 32 32" version="1.1" xmlns="http://www.w3.org/2000/svg" xmlns:xlink="http://www.w3.org/1999/xlink" xml:space="preserve" xmlns:serif="http://www.serif.com/" style="fill-rule:evenodd;clip-rule:evenodd;stroke-linejoin:round;stroke-miterlimit:2;">
    <g transform="matrix(0.168928,0,0,0.160667,-36.6709,-18.0177)">
        <path d="M257,118.668C258.008,119.609 258.555,120.34 259,121.645C259,122.945 258.516,123.816 258,125C258.133,126.578 258.871,127.973 259.52,129.395C260.668,131.914 260.668,131.914 260.668,132.668L263,132.668L263.23,131.375C263.715,129.188 264.711,127.324 265.895,125.438C267.891,123.445 270.336,121.922 273,121C274.188,120.75 274.188,120.75 275,120.668C276.012,123.246 276.52,125.668 276.211,128.441C275.66,131.477 274.48,133.996 273,136.668L273.703,136.91C274.824,137.402 275.773,138.055 276.77,138.75C282.176,142.418 287.887,145.535 293.766,148.371C297.664,150.27 301.848,152.438 304.492,155.996C305.215,157.207 305.648,158.273 305.684,159.672C305.688,160.336 305.676,161.004 305.668,161.668L306.668,161L307.352,160.555C309.207,159.242 310.172,157.977 311.176,155.953C311.684,154.965 312.25,154.063 312.875,153.145L313.43,152.332C314.023,151.641 314.496,151.34 315.332,151L316,152L316.258,151.363C317.316,149 318.586,147.527 320.668,146C325.586,142.605 331.191,139.5 337,138L337.668,138L337.332,140C337.703,139.688 338.07,139.375 338.438,139.063L339.059,138.535C339.664,138.027 339.664,138.027 340.113,137.492C340.668,137 340.668,137 341.352,136.766C342.234,136.59 343.117,136.426 344,136.27L344.988,136.094C347.652,135.652 350.223,135.563 352.914,135.652C354.176,135.688 355.383,135.559 356.633,135.402C357.594,135.309 358.516,135.355 359.48,135.438C359.816,135.465 360.152,135.488 360.5,135.516L361.332,135.668L362,136.332C360.773,136.742 359.91,136.613 358.625,136.5C356.961,136.367 355.406,136.336 353.754,136.586C352.848,136.684 351.973,136.652 351.063,136.625C349.063,136.609 347.141,136.82 345.168,137.105L344.297,137.223C342.77,137.457 341.586,137.703 340.332,138.668C339.535,139.434 338.785,140.238 338.027,141.047L337.332,141.668L336.332,141.668L336.668,139C333.465,140.047 330.5,141.367 327.543,142.98L326.629,143.473C324.547,144.633 322.594,145.93 320.668,147.332L320.063,147.766C318.719,148.797 318.09,149.848 317.332,151.332L316.75,152.48L316.332,153.332L315.668,153.332L315.332,152.668L314.332,152.668C313.637,153.527 313.637,153.527 312.98,154.605L312.281,155.695L311.668,156.668L311,157.668L311.477,157.324C312.207,156.809 312.938,156.289 313.668,155.77L314.418,155.234C316.902,153.473 319.395,151.926 322.137,150.586L322.75,150.285L323.367,149.98C324.02,149.656 324.66,149.324 325.305,148.988L325.941,148.656C326.535,148.348 327.121,148.039 327.711,147.73L328.668,147.332L329.668,147.668C324.555,150.555 324.555,150.555 322.418,151.707C321.832,152.027 321.25,152.348 320.668,152.668L319.766,153.156C315.57,155.5 311.711,158.434 307.996,161.469C307.145,162.152 306.258,162.75 305.332,163.332C306.082,163.629 306.082,163.629 307,163.668C307.863,163.098 307.863,163.098 308.645,162.27C309.813,161.129 310.961,160.219 312.332,159.332C313.016,158.836 313.695,158.336 314.375,157.832C324.738,150.355 336.582,145.289 348.668,141.332C342.867,142.613 337.227,144.535 331.816,146.988C331,147.332 331,147.332 330.332,147.332L330.332,146.668C336.398,143.898 342.613,141.629 349.125,140.145C349.371,140.09 349.617,140.035 349.871,139.977C350.465,139.852 351.066,139.754 351.668,139.668L352.668,140L352.332,141C351.555,141.344 350.809,141.617 350,141.875C349.48,142.051 348.961,142.227 348.445,142.402L347.582,142.691C342.148,144.523 336.844,146.523 331.668,149L330.977,149.328C321.723,153.594 321.723,153.594 313.668,159.668C318.043,159.805 318.043,159.805 322.352,159.145C323,159 323,159 324.332,159L323.668,158.375L323,157.668L323,157C323.66,157.012 323.66,157.012 324.332,157.02C328.258,157.004 331.152,156.457 334.609,154.57C335.668,154 335.668,154 336.332,154L336.332,153.332L335.582,153.23C334.602,152.984 334.07,152.684 333.332,152L333.332,151.332C334.332,150.832 335.227,150.961 336.332,151L337.105,151.168C338.547,151.434 339.871,151.551 341.332,151.332C343.113,150.629 344.742,149.727 346.332,148.668L345.332,147.855L344.332,147L344.332,146.668L346.668,146.668L346.793,147.25C347.004,148.008 347.305,148.637 347.668,149.332C346.926,149.711 346.18,150.086 345.438,150.457L344.805,150.777C342.348,152.016 340.73,152.473 338,152.332C336.996,152.246 336,152.129 335,152L338,153.332C336.824,154.727 335.438,155.332 333.813,156.063L333.035,156.422C331.039,157.34 329.488,157.711 327.27,157.688L326.516,157.684C325.898,157.68 325.281,157.672 324.668,157.668L325.668,158.332L325.668,159.332C321.469,160.477 317.309,161.211 312.938,160.934C311.965,160.934 311.965,160.934 311.098,161.512L310.25,162.168C309.73,162.566 309.203,162.953 308.668,163.332L308,163.332L308,164L309.125,164.082C311.398,164.371 313.477,165.25 315.375,166.52L316.332,167.332L316.332,168.332C314.813,168.148 313.699,167.742 312.355,167.02C310.625,166.129 309.141,165.48 307.199,165.23L306.332,165.332C305.516,165.938 305.516,165.938 304.758,166.781L303.883,167.688C303.586,168.004 303.285,168.32 302.98,168.645C302.387,169.27 301.793,169.891 301.195,170.508L300.402,171.352C299.668,172 299.668,172 298.945,172.281L298.332,172.332L297.668,172C297.793,170.992 297.977,170.371 298.543,169.516L299.188,168.73L299.836,167.93L300.332,167.332C300.137,167.383 299.941,167.43 299.742,167.48C297.496,167.988 295.41,168.063 293.113,167.996C292.363,167.98 291.613,167.969 290.863,167.957L289.691,167.938C283.348,167.832 277.363,167.746 271.297,169.816C270.668,170 270.668,170 269.668,170L269.797,170.738C270.199,173.098 270.531,175.461 270.797,177.836L270.922,178.934C271.055,180.129 271.191,181.32 271.324,182.516L271.613,185.063C271.844,187.094 272.074,189.121 272.305,191.152C272.488,192.785 272.676,194.418 272.859,196.051L272.938,196.754L273.098,198.156C274.031,206.375 274.961,214.594 275.867,222.816L275.961,223.676C276.242,226.207 276.52,228.742 276.793,231.277C277.211,235.129 277.633,238.973 278.199,242.805L278.316,243.598C279.121,248.785 281.172,253.41 284.438,257.508C284.844,258.008 285.254,258.504 285.668,259L286.27,259.758C287.844,261.668 289.727,263.148 291.668,264.668L292.621,265.445C299.367,270.848 307.188,274.613 314.891,278.441C320.102,281.035 325.328,283.738 329.668,287.668L330.164,288.113C334.629,292.184 337.418,297.039 339.367,302.738C339.891,304.523 340,305.73 340,307.668L254.332,307.668L255,287.668C255.008,281.449 255.008,281.449 254.863,275.238L254.824,274.164C254.125,256.984 252.492,239.836 251.039,222.711C250.449,215.77 249.879,208.832 249.309,201.891L249.238,201.07L248.43,191.199C247.965,185.523 247.5,179.852 247.035,174.176C246.691,170 246.348,165.82 245.992,161.645L245.918,160.762C245.813,159.496 245.703,158.227 245.594,156.961L245.484,155.707L245.395,154.668C245.328,153.555 245.324,152.449 245.332,151.332L244.371,151.688L243.105,152.145L242.473,152.379C240.289,153.168 238.313,153.547 236,153.332C234.957,153.094 233.988,152.742 233,152.332L232.336,152.063C228.938,150.527 225.855,147.703 223.688,144.688L223,143.668C223.164,143.074 223.164,143.074 223.668,142.332C224.52,141.828 225.43,141.48 226.355,141.125L227.137,140.816C230.461,139.535 233.406,139.02 237,139.332C239.465,139.859 241.543,140.879 243.648,142.242C244.355,142.715 244.355,142.715 245.332,143L245.426,142.262C245.777,140.906 246.617,140.121 247.535,139.094L248,138.332C247.988,136.426 246.66,134.578 245.742,132.965C245.309,132.262 244.879,131.621 244.332,131C243.348,130.57 242.773,130.543 241.711,130.625L241,130.668C240.145,130.043 240.145,130.043 239.668,129.332C239.254,128.094 239.148,126.953 239.332,125.668C239.898,124.738 240.359,124.188 241.289,123.621C242.102,123.293 242.609,123.27 243.48,123.355C244.617,123.516 245.027,123.688 246,124.375C246.668,125.332 246.668,125.332 246.957,126.5C247,127.668 247,127.668 246.73,128.457L246.668,129.332C247.219,130.039 247.719,130.574 248.375,131.168L248.867,131.633C249.355,132.09 249.844,132.547 250.332,133L251.238,133.949L252,134.668C252.824,134.688 252.824,134.688 253.668,134.332C254.445,134.109 255.223,133.887 256,133.668L255.91,133.105C255.77,132.266 255.637,131.426 255.5,130.582L255.355,129.703L255.219,128.848L255.094,128.066C255,127.332 255,127.332 255,126L253.918,125.793C252.668,125.332 252.668,125.332 251.855,124.438C251.332,123.332 251.332,123.332 251.168,122.168C251.332,121 251.332,121 251.875,119.895C252.668,119 252.668,119 253.605,118.52C254.895,118.293 255.738,118.301 257,118.668" style="fill:rgb(248,174,175);fill-rule:nonzero;"/>
    </g>
    <g transform="matrix(0.168928,0,0,0.160667,-36.6709,-18.0177)">
        <path d="M257,118.668C258.008,119.609 258.555,120.34 259,121.645C259,122.945 258.516,123.816 258,125C258.133,126.578 258.871,127.973 259.52,129.395C260.668,131.914 260.668,131.914 260.668,132.668L263,132.668L263.23,131.375C263.715,129.188 264.711,127.324 265.895,125.438C267.891,123.445 270.336,121.922 273,121C274.188,120.75 274.188,120.75 275,120.668C276.012,123.246 276.52,125.668 276.211,128.441C275.66,131.477 274.48,133.996 273,136.668L273.703,136.91C274.824,137.402 275.773,138.055 276.77,138.75C282.176,142.418 287.887,145.535 293.766,148.371C297.664,150.27 301.848,152.438 304.492,155.996C305.215,157.207 305.648,158.273 305.684,159.672C305.688,160.336 305.676,161.004 305.668,161.668L306.668,161L307.352,160.555C309.207,159.242 310.172,157.977 311.176,155.953C311.684,154.965 312.25,154.063 312.875,153.145L313.43,152.332C314.023,151.641 314.496,151.34 315.332,151L316,152L316.258,151.363C317.316,149 318.586,147.527 320.668,146C325.586,142.605 331.191,139.5 337,138L337.668,138L337.332,140C337.703,139.688 338.07,139.375 338.438,139.063L339.059,138.535C339.664,138.027 339.664,138.027 340.113,137.492C340.668,137 340.668,137 341.352,136.766C342.234,136.59 343.117,136.426 344,136.27L344.988,136.094C347.652,135.652 350.223,135.563 352.914,135.652C354.176,135.688 355.383,135.559 356.633,135.402C357.594,135.309 358.516,135.355 359.48,135.438C359.816,135.465 360.152,135.488 360.5,135.516L361.332,135.668L362,136.332C360.773,136.742 359.91,136.613 358.625,136.5C356.961,136.367 355.406,136.336 353.754,136.586C352.848,136.684 351.973,136.652 351.063,136.625C349.063,136.609 347.141,136.82 345.168,137.105L344.297,137.223C342.77,137.457 341.586,137.703 340.332,138.668C339.535,139.434 338.785,140.238 338.027,141.047L337.332,141.668L336.332,141.668L336.668,139C333.465,140.047 330.5,141.367 327.543,142.98L326.629,143.473C324.547,144.633 322.594,145.93 320.668,147.332L320.063,147.766C318.719,148.797 318.09,149.848 317.332,151.332L316.75,152.48L316.332,153.332L315.668,153.332L315.332,152.668L314.332,152.668C313.637,153.527 313.637,153.527 312.98,154.605L312.281,155.695L311.668,156.668L311,157.668L311.477,157.324C312.207,156.809 312.938,156.289 313.668,155.77L314.418,155.234C316.902,153.473 319.395,151.926 322.137,150.586L322.75,150.285L323.367,149.98C324.02,149.656 324.66,149.324 325.305,148.988L325.941,148.656C326.535,148.348 327.121,148.039 327.711,147.73L328.668,147.332L329.668,147.668C324.555,150.555 324.555,150.555 322.418,151.707C321.832,152.027 321.25,152.348 320.668,152.668L319.766,153.156C315.57,155.5 311.711,158.434 307.996,161.469C307.145,162.152 306.258,162.75 305.332,163.332C306.082,163.629 306.082,163.629 307,163.668C307.863,163.098 307.863,163.098 308.645,162.27C309.813,161.129 310.961,160.219 312.332,159.332C313.016,158.836 313.695,158.336 314.375,157.832C324.738,150.355 336.582,145.289 348.668,141.332C342.867,142.613 337.227,144.535 331.816,146.988C331,147.332 331,147.332 330.332,147.332L330.332,146.668C336.398,143.898 342.613,141.629 349.125,140.145C349.371,140.09 349.617,140.035 349.871,139.977C350.465,139.852 351.066,139.754 351.668,139.668L352.668,140L352.332,141C351.555,141.344 350.809,141.617 350,141.875C349.48,142.051 348.961,142.227 348.445,142.402L347.582,142.691C342.148,144.523 336.844,146.523 331.668,149L330.977,149.328C321.723,153.594 321.723,153.594 313.668,159.668C318.043,159.805 318.043,159.805 322.352,159.145C323,159 323,159 324.332,159L323.668,158.375L323,157.668L323,157C323.66,157.012 323.66,157.012 324.332,157.02C328.258,157.004 331.152,156.457 334.609,154.57C335.668,154 335.668,154 336.332,154L336.332,153.332L335.582,153.23C334.602,152.984 334.07,152.684 333.332,152L333.332,151.332C334.332,150.832 335.227,150.961 336.332,151L337.105,151.168C338.547,151.434 339.871,151.551 341.332,151.332C343.113,150.629 344.742,149.727 346.332,148.668L345.332,147.855L344.332,147L344.332,146.668L346.668,146.668L346.793,147.25C347.004,148.008 347.305,148.637 347.668,149.332C346.926,149.711 346.18,150.086 345.438,150.457L344.805,150.777C342.348,152.016 340.73,152.473 338,152.332C336.996,152.246 336,152.129 335,152L338,153.332C336.824,154.727 335.438,155.332 333.813,156.063L333.035,156.422C331.039,157.34 329.488,157.711 327.27,157.688L326.516,157.684C325.898,157.68 325.281,157.672 324.668,157.668L325.668,158.332L325.668,159.332C321.469,160.477 317.309,161.211 312.938,160.934C311.965,160.934 311.965,160.934 311.098,161.512L310.25,162.168C309.73,162.566 309.203,162.953 308.668,163.332L308,163.332L308,164L309.125,164.082C311.398,164.371 313.477,165.25 315.375,166.52L316.332,167.332L316.332,168.332C314.813,168.148 313.699,167.742 312.355,167.02C310.625,166.129 309.141,165.48 307.199,165.23L306.332,165.332C305.516,165.938 305.516,165.938 304.758,166.781L303.883,167.688C303.586,168.004 303.285,168.32 302.98,168.645C302.387,169.27 301.793,169.891 301.195,170.508L300.402,171.352C299.668,172 299.668,172 298.945,172.281L298.332,172.332L297.668,172C297.793,170.992 297.977,170.371 298.543,169.516L299.188,168.73L299.836,167.93L300.332,167.332C300.137,167.383 299.941,167.43 299.742,167.48C297.496,167.988 295.41,168.063 293.113,167.996C292.363,167.98 291.613,167.969 290.863,167.957L289.691,167.938C283.348,167.832 277.363,167.746 271.297,169.816C270.668,170 270.668,170 269.668,170L269.797,170.738C270.199,173.098 270.531,175.461 270.797,177.836L270.922,178.934C271.055,180.129 271.191,181.32 271.324,182.516L271.613,185.063C271.844,187.094 272.074,189.121 272.305,191.152C272.488,192.785 272.676,194.418 272.859,196.051L272.938,196.754L273.098,198.156C274.031,206.375 274.961,214.594 275.867,222.816L275.961,223.676C276.242,226.207 276.52,228.742 276.793,231.277C277.211,235.129 277.633,238.973 278.199,242.805L278.316,243.598C279.121,248.785 281.172,253.41 284.438,257.508C284.844,258.008 285.254,258.504 285.668,259L286.27,259.758C287.844,261.668 289.727,263.148 291.668,264.668L292.621,265.445C299.367,270.848 307.188,274.613 314.891,278.441C320.102,281.035 325.328,283.738 329.668,287.668L330.164,288.113C334.629,292.184 337.418,297.039 339.367,302.738C339.891,304.523 340,305.73 340,307.668L254.332,307.668L255,287.668C255.008,281.449 255.008,281.449 254.863,275.238L254.824,274.164C254.125,256.996 252.492,239.863 251.043,222.75C250.398,215.137 249.766,207.527 249.148,199.914C248.781,195.457 248.418,191 248.051,186.543C247.813,183.613 247.57,180.68 247.332,177.75L246.969,173.348L246.695,170.004L246.598,168.813C246.441,166.887 246.27,164.961 246.063,163.035C245.969,162.008 245.969,160.988 245.98,159.957L245.988,158.832L246,158L246.668,158L246.742,158.895C246.969,161.672 247.199,164.445 247.434,167.223C247.551,168.648 247.668,170.078 247.785,171.504C247.898,172.883 248.016,174.258 248.129,175.637C248.176,176.16 248.219,176.688 248.262,177.215C248.32,177.949 248.383,178.684 248.445,179.418L248.551,180.688C248.609,181.645 248.609,181.645 249,182.332L249.734,182.285C252.391,182.191 254.578,182.551 257,183.668C257.984,184.211 258.66,184.766 259.332,185.668C260.855,188.52 261.848,191.66 261.746,194.914C261.566,196.594 261.129,198.012 260.152,199.402C258.773,201.043 257.406,202.242 255.391,203.043C253.625,203.668 252.215,204.031 250.332,204L250.414,204.852C250.867,209.621 251.32,214.391 251.73,219.168L251.813,220.129C251.961,221.871 252.027,223.586 252,225.332L253,225C255.387,224.777 257.426,224.938 259.621,225.93C260.633,226.504 261.277,227.086 262,228L262,228.668L263,229C264.734,230.965 266.406,233.082 267,235.668C267.059,237.246 266.762,238.609 266.105,240.043C264.984,242.051 263.699,243.508 261.75,244.75C259.664,245.922 257.637,246.688 255.23,246.691L254,246.668C254.004,248.184 254.051,249.695 254.105,251.207L254.109,252.508C254.164,253.77 254.25,254.805 254.668,256C255.789,256.977 256.969,257.445 258.332,258C259.809,259.352 260.469,260.863 261.09,262.734C261.445,264.102 261.574,265.27 261.332,266.668C260.781,268.547 260.07,270.266 258.668,271.668C257.645,272.438 257.645,272.438 256.668,273L255.668,273L255.699,273.801C255.742,275.035 255.789,276.27 255.832,277.5L255.883,278.762C256.055,283.539 256.02,288.301 255.875,293.074C255.855,293.813 255.836,294.547 255.813,295.281C255.746,297.777 255.648,300.27 255.508,302.762L255.473,303.469C255.398,304.691 255.242,305.793 255,307L285.332,307L285.332,304C285.742,301.957 286.586,300.285 287.918,298.688C289.148,297.41 290.336,296.594 292,296L292.645,295.762C294.469,295.199 296.141,295.273 298,295.668C300.602,296.379 302.965,297.246 305.031,299.016C306.449,300.469 307.418,302 308.125,303.895C308.332,305 308.332,305 308.332,307L339.332,307C337.918,301.59 337.918,301.59 335.766,296.793C335.328,295.992 334.988,295.188 334.668,294.332L333.668,294.332L333.563,294.918C333.129,296.34 332.066,297.336 331,298.332C329.34,299.473 327.781,300.234 325.766,300.414C323.738,300.465 322.18,300.313 320.344,299.422C319.098,298.645 318.184,297.969 317.41,296.695L316.918,295.645L316.41,294.594C315.641,292.859 315.516,291.406 315.531,289.52C315.758,287.539 316.543,285.965 317.668,284.332C318.406,283.547 319.117,282.969 320,282.332C318.328,281.141 316.57,280.277 314.707,279.418L313.82,279C313.102,278.668 312.387,278.332 311.668,278L311.367,278.938C310.77,280.668 309.813,281.934 308.52,283.207C306.789,284.66 304.855,285.23 302.668,285.668C300.52,285.918 298.496,285.734 296.449,285.031C295.031,284.371 293.992,283.539 293,282.332C291.66,280.219 291.086,278.109 290.977,275.617C291.035,273.195 291.707,271.395 292.926,269.316C293.277,268.762 293.633,268.211 294,267.668L291.75,265.895L291.109,265.391C290.699,265.07 290.289,264.746 289.879,264.426C289.434,264.078 288.992,263.73 288.555,263.379L288,263C286.828,263.039 285.871,263.781 284.883,264.359C283.844,264.941 283.004,265 281.813,265.105C279.949,265.063 278.313,264.523 276.668,263.668C275.453,262.758 274.391,261.754 273.332,260.668L272.789,260.156C271.848,259.191 271.434,258.156 271.043,256.895C270.633,255.176 270.539,253.711 271,252C271.645,250.273 272.578,248.535 274,247.332C275.082,246.703 276.191,246.18 277.332,245.668L276.457,237.773C276.27,236.113 276.086,234.453 275.906,232.793C275.828,232.105 275.754,231.418 275.676,230.73C275.563,229.723 275.453,228.715 275.34,227.703L275.238,226.781C275.063,225.176 274.965,223.613 275,222L274.387,222.047C272.426,222.133 270.895,221.895 269.102,221.078C266.879,219.891 265.629,218.238 264.23,216.188L263.793,215.547C262.898,214.188 262.34,212.945 262,211.332C261.926,209.676 262.203,208.102 262.875,206.582C263.668,205.18 264.633,204.188 266,203.332C268.246,202.238 270.18,201.836 272.668,202L272.539,201.219C272.102,198.449 271.754,195.676 271.449,192.883L271.297,191.539C271.195,190.602 271.094,189.668 270.988,188.734C270.859,187.559 270.73,186.379 270.598,185.203C270.039,180.137 269.492,175.074 269,170L268.281,170.043C265.664,170.172 263.422,169.641 261,168.668C260.051,168.164 259.215,167.621 258.332,167L259.332,166.668C260.332,167.059 260.332,167.059 261.48,167.625C264.375,169.043 266.891,169.262 270.09,169.102C271.73,168.922 273.289,168.449 274.875,168C278.945,166.848 282.797,166.781 287,167L286.672,165.797C286.043,163.27 286.09,160.676 286.707,158.145C287.707,154.953 289.145,152.309 291.488,149.914L292,149.332L292,148.668L291.09,148.234C285.605,145.59 280.445,142.426 275.375,139.063C269.672,135.215 269.672,135.215 263.105,133.688C262.172,133.629 261.25,133.512 260.332,133.332C259.645,132.785 259.645,132.785 259.23,132.063C259.023,131.492 258.836,130.918 258.668,130.332C258.355,129.547 258.043,128.762 257.73,127.98C257.484,127.32 257.242,126.66 257,126L256,126L256.145,126.988C256.48,129.336 256.75,131.621 256.668,134C256.039,134.355 255.406,134.699 254.77,135.043L253.703,135.629C252.668,136 252.668,136 251.855,135.887C250.555,135.043 249.59,133.941 248.563,132.793C248.348,132.555 248.133,132.32 247.91,132.078C247.383,131.5 246.855,130.918 246.332,130.332L245.332,130.668L245.672,131.223C246.172,132.055 246.668,132.891 247.168,133.73L247.695,134.602L248.199,135.453L248.664,136.23C249.051,137.113 249.098,137.711 249,138.668C248.523,139.402 248.523,139.402 247.895,140.125C246.859,141.379 246.219,142.477 245.668,144C243.91,143.785 242.59,142.895 241.117,141.988C239.125,140.805 237.207,140.234 234.875,140.188C231.262,140.234 227.863,141.379 224.668,143L224,143L224.332,143.668L224.973,143.543C225.98,143.355 226.988,143.176 228,143L229.117,142.797C234.469,141.906 238.582,142.863 243.586,144.703C244.539,145.082 245.434,145.516 246.332,146L246.332,146.668C244.824,146.168 243.313,145.66 241.809,145.145L241.051,144.883C240.543,144.711 240.031,144.535 239.523,144.359C235.828,143.105 232.16,143.199 228.355,143.914C227.344,144.148 226.336,144.395 225.332,144.668C227.215,147.547 229.809,149.758 232.867,151.344C234.758,152.109 236.656,152.395 238.695,152.27C240.703,151.984 242.477,151.422 244.313,150.57L245,150.332L246,150.668L246,153.668L245.332,153.668L245.332,151.332L244.371,151.688L243.105,152.145L242.473,152.379C240.289,153.168 238.313,153.547 236,153.332C234.957,153.094 233.988,152.742 233,152.332L232.336,152.063C228.938,150.527 225.855,147.703 223.688,144.688L223,143.668C223.164,143.074 223.164,143.074 223.668,142.332C224.52,141.828 225.43,141.48 226.355,141.125L227.137,140.816C230.461,139.535 233.406,139.02 237,139.332C239.465,139.859 241.543,140.879 243.648,142.242C244.355,142.715 244.355,142.715 245.332,143L245.426,142.262C245.777,140.906 246.617,140.121 247.535,139.094L248,138.332C247.988,136.426 246.66,134.578 245.742,132.965C245.309,132.262 244.879,131.621 244.332,131C243.348,130.57 242.773,130.543 241.711,130.625L241,130.668C240.145,130.043 240.145,130.043 239.668,129.332C239.254,128.094 239.148,126.953 239.332,125.668C239.898,124.738 240.359,124.188 241.289,123.621C242.102,123.293 242.609,123.27 243.48,123.355C244.617,123.516 245.027,123.688 246,124.375C246.668,125.332 246.668,125.332 246.957,126.5C247,127.668 247,127.668 246.73,128.457L246.668,129.332C247.219,130.039 247.719,130.574 248.375,131.168L248.867,131.633C249.355,132.09 249.844,132.547 250.332,133L251.238,133.949L252,134.668C252.824,134.688 252.824,134.688 253.668,134.332C254.445,134.109 255.223,133.887 256,133.668L255.91,133.105C255.77,132.266 255.637,131.426 255.5,130.582L255.355,129.703L255.219,128.848L255.094,128.066C255,127.332 255,127.332 255,126L253.918,125.793C252.668,125.332 252.668,125.332 251.855,124.438C251.332,123.332 251.332,123.332 251.168,122.168C251.332,121 251.332,121 251.875,119.895C252.668,119 252.668,119 253.605,118.52C254.895,118.293 255.738,118.301 257,118.668" style="fill:rgb(5,4,4);fill-rule:nonzero;"/>
    </g>
    <g transform="matrix(0.168928,0,0,0.160667,-36.6709,-18.0177)">
        <path d="M257,118.668C258.008,119.609 258.555,120.34 259,121.645C259,122.945 258.516,123.816 258,125C258.133,126.578 258.871,127.973 259.52,129.395C260.668,131.914 260.668,131.914 260.668,132.668L263,132.668L263.23,131.375C263.715,129.188 264.711,127.324 265.895,125.438C267.891,123.445 270.336,121.922 273,121C274.188,120.75 274.188,120.75 275,120.668C276.012,123.246 276.52,125.668 276.211,128.441C275.66,131.477 274.48,133.996 273,136.668L273.703,136.91C274.824,137.402 275.773,138.055 276.77,138.75C282.176,142.418 287.887,145.535 293.766,148.371C297.664,150.27 301.848,152.438 304.492,155.996C305.215,157.207 305.648,158.273 305.684,159.672C305.688,160.336 305.676,161.004 305.668,161.668L306.668,161L307.352,160.555C309.207,159.242 310.172,157.977 311.176,155.953C311.684,154.965 312.25,154.063 312.875,153.145L313.43,152.332C314.023,151.641 314.496,151.34 315.332,151L316,152L316.258,151.363C317.316,149 318.586,147.527 320.668,146C325.586,142.605 331.191,139.5 337,138L337.668,138L337.332,140C337.703,139.688 338.07,139.375 338.438,139.063L339.059,138.535C339.664,138.027 339.664,138.027 340.113,137.492C340.668,137 340.668,137 341.352,136.766C342.234,136.59 343.117,136.426 344,136.27L344.988,136.094C347.652,135.652 350.223,135.563 352.914,135.652C354.176,135.688 355.383,135.559 356.633,135.402C357.594,135.309 358.516,135.355 359.48,135.438C359.816,135.465 360.152,135.488 360.5,135.516L361.332,135.668L362,136.332C360.773,136.742 359.91,136.613 358.625,136.5C356.961,136.367 355.406,136.336 353.754,136.586C352.848,136.684 351.973,136.652 351.063,136.625C349.063,136.609 347.141,136.82 345.168,137.105L344.297,137.223C342.77,137.457 341.586,137.703 340.332,138.668C339.535,139.434 338.785,140.238 338.027,141.047L337.332,141.668L336.332,141.668L336.668,139C333.465,140.047 330.5,141.367 327.543,142.98L326.629,143.473C324.547,144.633 322.594,145.93 320.668,147.332L320.063,147.766C318.719,148.797 318.09,149.848 317.332,151.332L316.75,152.48L316.332,153.332L315.668,153.332L315.332,152.668L314.332,152.668C313.637,153.527 313.637,153.527 312.98,154.605L312.281,155.695L311.668,156.668L311,157.668L311.477,157.324C312.207,156.809 312.938,156.289 313.668,155.77L314.418,155.234C316.902,153.473 319.395,151.926 322.137,150.586L322.75,150.285L323.367,149.98C324.02,149.656 324.66,149.324 325.305,148.988L325.941,148.656C326.535,148.348 327.121,148.039 327.711,147.73L328.668,147.332L329.668,147.668C324.555,150.555 324.555,150.555 322.418,151.707C321.832,152.027 321.25,152.348 320.668,152.668L319.766,153.156C315.57,155.5 311.711,158.434 307.996,161.469C307.145,162.152 306.258,162.75 305.332,163.332C306.082,163.629 306.082,163.629 307,163.668C307.863,163.098 307.863,163.098 308.645,162.27C309.813,161.129 310.961,160.219 312.332,159.332C313.016,158.836 313.695,158.336 314.375,157.832C324.738,150.355 336.582,145.289 348.668,141.332C342.867,142.613 337.227,144.535 331.816,146.988C331,147.332 331,147.332 330.332,147.332L330.332,146.668C336.398,143.898 342.613,141.629 349.125,140.145C349.371,140.09 349.617,140.035 349.871,139.977C350.465,139.852 351.066,139.754 351.668,139.668L352.668,140L352.332,141C351.555,141.344 350.809,141.617 350,141.875C349.48,142.051 348.961,142.227 348.445,142.402L347.582,142.691C342.148,144.523 336.844,146.523 331.668,149L330.977,149.328C321.723,153.594 321.723,153.594 313.668,159.668C318.043,159.805 318.043,159.805 322.352,159.145C323,159 323,159 324.332,159L323.668,158.375L323,157.668L323,157C323.66,157.012 323.66,157.012 324.332,157.02C328.258,157.004 331.152,156.457 334.609,154.57C335.668,154 335.668,154 336.332,154L336.332,153.332L335.582,153.23C334.602,152.984 334.07,152.684 333.332,152L333.332,151.332C334.332,150.832 335.227,150.961 336.332,151L337.105,151.168C338.547,151.434 339.871,151.551 341.332,151.332C343.113,150.629 344.742,149.727 346.332,148.668L345.332,147.855L344.332,147L344.332,146.668L346.668,146.668L346.793,147.25C347.004,148.008 347.305,148.637 347.668,149.332C346.926,149.711 346.18,150.086 345.438,150.457L344.805,150.777C342.348,152.016 340.73,152.473 338,152.332C336.996,152.246 336,152.129 335,152L338,153.332C336.824,154.727 335.438,155.332 333.813,156.063L333.035,156.422C331.039,157.34 329.488,157.711 327.27,157.688L326.516,157.684C325.898,157.68 325.281,157.672 324.668,157.668L325.668,158.332L325.668,159.332C321.469,160.477 317.309,161.211 312.938,160.934C311.965,160.934 311.965,160.934 311.098,161.512L310.25,162.168C309.73,162.566 309.203,162.953 308.668,163.332L308,163.332L308,164L309.125,164.082C311.398,164.371 313.477,165.25 315.375,166.52L316.332,167.332L316.332,168.332C314.813,168.148 313.699,167.742 312.355,167.02C310.625,166.129 309.141,165.48 307.199,165.23L306.332,165.332C305.516,165.938 305.516,165.938 304.758,166.781L303.883,167.688C303.586,168.004 303.285,168.32 302.98,168.645C302.387,169.27 301.793,169.891 301.195,170.508L300.402,171.352C299.668,172 299.668,172 298.945,172.281L298.332,172.332L297.668,172C297.793,170.992 297.977,170.371 298.543,169.516L299.188,168.73L299.836,167.93L300.332,167.332C300.137,167.383 299.941,167.43 299.742,167.48C297.496,167.988 295.41,168.063 293.113,167.996C292.363,167.98 291.613,167.969 290.863,167.957L289.691,167.938C283.348,167.832 277.363,167.746 271.297,169.816C270.668,170 270.668,170 269.668,170L269.789,170.672C270.266,173.434 270.629,176.199 270.953,178.98C271.043,179.73 271.133,180.484 271.227,181.238C271.508,183.609 271.746,185.938 271.668,188.332L271,188.668C270.715,186.223 270.43,183.777 270.145,181.336C270.047,180.504 269.953,179.672 269.855,178.84C269.715,177.645 269.574,176.449 269.438,175.254L269.305,174.129L269.184,173.074L269.074,172.152C269,171.332 269,171.332 269,170L268.352,170.047C265.703,170.152 263.457,169.656 261,168.668C260.051,168.164 259.215,167.621 258.332,167L259.332,166.668C260.332,167.059 260.332,167.059 261.48,167.625C264.375,169.043 266.891,169.262 270.09,169.102C271.73,168.922 273.289,168.449 274.875,168C278.945,166.848 282.797,166.781 287,167L286.672,165.797C286.043,163.27 286.09,160.676 286.707,158.145C287.707,154.953 289.145,152.309 291.488,149.914L292,149.332L292,148.668L291.09,148.234C285.605,145.59 280.445,142.426 275.375,139.063C269.672,135.215 269.672,135.215 263.105,133.688C262.172,133.629 261.25,133.512 260.332,133.332C259.645,132.785 259.645,132.785 259.23,132.063C259.023,131.492 258.836,130.918 258.668,130.332C258.355,129.547 258.043,128.762 257.73,127.98C257.484,127.32 257.242,126.66 257,126L256,126L256.145,126.988C256.48,129.336 256.75,131.621 256.668,134C256.039,134.355 255.406,134.699 254.77,135.043L253.703,135.629C252.668,136 252.668,136 251.855,135.887C250.555,135.043 249.59,133.941 248.563,132.793C248.348,132.555 248.133,132.32 247.91,132.078C247.383,131.5 246.855,130.918 246.332,130.332L245.332,130.668L245.672,131.223C246.172,132.055 246.668,132.891 247.168,133.73L247.695,134.602L248.199,135.453L248.664,136.23C249.051,137.113 249.098,137.711 249,138.668C248.523,139.402 248.523,139.402 247.895,140.125C246.859,141.379 246.219,142.477 245.668,144C243.91,143.785 242.59,142.895 241.117,141.988C239.125,140.805 237.207,140.234 234.875,140.188C231.262,140.234 227.863,141.379 224.668,143L224,143L224.332,143.668L224.973,143.543C225.98,143.355 226.988,143.176 228,143L229.117,142.797C234.469,141.906 238.582,142.863 243.586,144.703C244.539,145.082 245.434,145.516 246.332,146L246.332,146.668C244.824,146.168 243.313,145.66 241.809,145.145L241.051,144.883C240.543,144.711 240.031,144.535 239.523,144.359C235.828,143.105 232.16,143.199 228.355,143.914C227.344,144.148 226.336,144.395 225.332,144.668C227.215,147.547 229.809,149.758 232.867,151.344C234.758,152.109 236.656,152.395 238.695,152.27C240.703,151.984 242.477,151.422 244.313,150.57L245,150.332L246,150.668L246,153.668L245.332,153.668L245.332,151.332L244.371,151.688L243.105,152.145L242.473,152.379C240.289,153.168 238.313,153.547 236,153.332C234.957,153.094 233.988,152.742 233,152.332L232.336,152.063C228.938,150.527 225.855,147.703 223.688,144.688L223,143.668C223.164,143.074 223.164,143.074 223.668,142.332C224.52,141.828 225.43,141.48 226.355,141.125L227.137,140.816C230.461,139.535 233.406,139.02 237,139.332C239.465,139.859 241.543,140.879 243.648,142.242C244.355,142.715 244.355,142.715 245.332,143L245.426,142.262C245.777,140.906 246.617,140.121 247.535,139.094L248,138.332C247.988,136.426 246.66,134.578 245.742,132.965C245.309,132.262 244.879,131.621 244.332,131C243.348,130.57 242.773,130.543 241.711,130.625L241,130.668C240.145,130.043 240.145,130.043 239.668,129.332C239.254,128.094 239.148,126.953 239.332,125.668C239.898,124.738 240.359,124.188 241.289,123.621C242.102,123.293 242.609,123.27 243.48,123.355C244.617,123.516 245.027,123.688 246,124.375C246.668,125.332 246.668,125.332 246.957,126.5C247,127.668 247,127.668 246.73,128.457L246.668,129.332C247.219,130.039 247.719,130.574 248.375,131.168L248.867,131.633C249.355,132.09 249.844,132.547 250.332,133L251.238,133.949L252,134.668C252.824,134.688 252.824,134.688 253.668,134.332C254.445,134.109 255.223,133.887 256,133.668L255.91,133.105C255.77,132.266 255.637,131.426 255.5,130.582L255.355,129.703L255.219,128.848L255.094,128.066C255,127.332 255,127.332 255,126L253.918,125.793C252.668,125.332 252.668,125.332 251.855,124.438C251.332,123.332 251.332,123.332 251.168,122.168C251.332,121 251.332,121 251.875,119.895C252.668,119 252.668,119 253.605,118.52C254.895,118.293 255.738,118.301 257,118.668" style="fill:rgb(5,4,5);fill-rule:nonzero;"/>
    </g>
    <g transform="matrix(0.168928,0,0,0.160667,-36.6709,-18.0177)">
        <path d="M358.75,136.145C360.359,136.258 361.945,136.352 363.563,136.313C364.824,136.301 365.844,136.438 367,137L367.332,138C366.457,138.93 365.609,139.633 364.512,140.281L363.629,140.805L362.688,141.355C362.367,141.543 362.043,141.73 361.715,141.926C352.492,147.285 352.492,147.285 350,148C349.109,147.918 349.109,147.918 348.23,147.707L347.336,147.504L346.668,147.332L346.668,146.668L344.668,147L345.457,147.625C346.332,148.332 346.332,148.332 347,149L345.93,149.5L344.543,150.145L343.836,150.477C342.578,151.059 342.578,151.059 341.332,151.668C339.617,151.77 338.016,151.68 336.332,151.332C335.332,151.305 334.336,151.313 333.332,151.332C334.258,152.359 335.02,152.895 336.332,153.332L336.332,154C333.316,155.738 330.598,157.168 327.051,157.211C325.695,157.176 324.352,157.109 323,157L323,157.668L324.332,158.332L324.332,159C320.512,160.063 316.938,160.105 313,160C314.129,158.762 315.391,157.914 316.793,157.02L317.535,156.547C322.09,153.652 326.676,150.777 331.641,148.637C332.434,148.289 333.219,147.93 334.004,147.57C338.438,145.563 342.953,143.922 347.563,142.375C349.969,141.578 349.969,141.578 352.332,140.668L352.668,140C345.547,140.766 338.047,143.238 331.633,146.383C331,146.668 331,146.668 330.332,146.668L330.332,147.332L331.535,146.781C335.039,145.215 338.617,143.844 342.27,142.668L343.469,142.277C345.43,141.656 347.277,141.16 349.332,141C348.555,141.777 348.016,141.934 346.977,142.27L345.918,142.621L344.77,143C340.512,144.441 336.418,146.129 332.332,148L331.438,148.402C324.637,151.469 318.328,155.23 312.332,159.668L311.73,160.109C309.551,161.715 309.551,161.715 307.449,163.422L306.668,164C305.73,163.918 305.73,163.918 305,163.668C311.547,156.688 320.945,151.973 329.332,147.668C327.52,148.215 325.852,148.996 324.145,149.813L323.301,150.211C320.836,151.387 318.602,152.801 316.332,154.313L315.531,154.844C314.438,155.574 313.379,156.297 312.355,157.125L311.668,157.668L311,157.668C311.563,156.445 312.289,155.363 313.043,154.25L313.773,153.16L314.332,152.332L315.668,152.668L315.668,153.332C316.613,152.566 316.926,151.711 317.383,150.605C318.324,148.594 320.02,147.363 321.797,146.113C331.477,139.703 331.477,139.703 336.668,139L336.332,141.668C337.598,140.98 338.391,140.262 339.313,139.168C340.234,138.219 340.875,137.711 342.125,137.262C343.305,137.008 344.469,136.816 345.668,136.668L346.445,136.539C348.313,136.262 350.199,136.313 352.082,136.344C353.078,136.359 354.008,136.332 354.992,136.156C356.262,135.961 357.477,136.047 358.75,136.145" style="fill:rgb(118,188,208);fill-rule:nonzero;"/>
    </g>
    <g transform="matrix(0.168928,0,0,0.160667,-36.6709,-18.0177)">
        <path d="M278,274C279.133,274.352 279.844,274.816 280.668,275.668C282.762,278.035 283.652,281.047 284.539,284.027C284.91,285.906 284.836,287.785 284.27,289.605C282.98,291.875 281.594,293.094 279.363,294.441C277.039,295.703 274.719,296.746 272.043,296.855C270.953,296.793 270.063,296.652 269.082,296.168C266.215,294.191 264.531,291.043 263,288C262.371,286.598 261.98,285.375 262.023,283.828C262.289,281.992 262.969,280.531 264.055,279.035C265.75,277.094 267.934,275.602 270.332,274.668C272.895,273.816 275.34,273.746 278,274" style="fill:rgb(119,188,209);fill-rule:nonzero;"/>
    </g>
    <g transform="matrix(0.168928,0,0,0.160667,-36.6709,-18.0177)">
        <path d="M358.73,135.438L359.461,135.473C360.086,135.512 360.711,135.586 361.332,135.668L362,136.332C360.773,136.742 359.91,136.613 358.625,136.5C356.961,136.367 355.406,136.336 353.754,136.586C352.848,136.684 351.973,136.652 351.063,136.625C349.063,136.609 347.141,136.82 345.168,137.105L344.297,137.223C342.77,137.457 341.586,137.703 340.332,138.668C339.535,139.434 338.785,140.238 338.027,141.047L337.332,141.668L336.332,141.668L336.668,139C333.465,140.047 330.5,141.367 327.543,142.98L326.629,143.473C324.547,144.633 322.594,145.93 320.668,147.332L320.063,147.766C318.719,148.797 318.09,149.848 317.332,151.332L316.75,152.48L316.332,153.332L315.668,153.332L315.332,152.668L314.332,152.668C313.637,153.527 313.637,153.527 312.98,154.605L312.281,155.695L311.668,156.668L311,157.668L311.477,157.324C312.207,156.809 312.938,156.289 313.668,155.77L314.418,155.234C316.902,153.473 319.395,151.926 322.137,150.586L322.75,150.285L323.367,149.98C324.02,149.656 324.66,149.324 325.305,148.988L325.941,148.656C326.535,148.348 327.121,148.039 327.711,147.73L328.668,147.332L329.668,147.668C324.555,150.555 324.555,150.555 322.418,151.707C321.832,152.027 321.25,152.348 320.668,152.668L319.766,153.156C315.57,155.5 311.711,158.434 307.996,161.469C307.145,162.152 306.258,162.75 305.332,163.332C306.082,163.629 306.082,163.629 307,163.668C307.863,163.098 307.863,163.098 308.645,162.27C309.813,161.129 310.961,160.219 312.332,159.332C313.016,158.836 313.695,158.336 314.375,157.832C324.738,150.355 336.582,145.289 348.668,141.332C342.867,142.613 337.227,144.535 331.816,146.988C331,147.332 331,147.332 330.332,147.332L330.332,146.668C336.398,143.898 342.613,141.629 349.125,140.145C349.371,140.09 349.617,140.035 349.871,139.977C350.465,139.852 351.066,139.754 351.668,139.668L352.668,140L352.332,141C351.555,141.344 350.809,141.617 350,141.875C349.48,142.051 348.961,142.227 348.445,142.402L347.582,142.691C342.148,144.523 336.844,146.523 331.668,149L330.977,149.328C321.723,153.594 321.723,153.594 313.668,159.668C318.043,159.805 318.043,159.805 322.352,159.145C323,159 323,159 324.332,159L323.668,158.375L323,157.668L323,157L324.332,157.02C328.258,157.004 331.152,156.457 334.609,154.57C335.668,154 335.668,154 336.332,154L336.332,153.332L335.582,153.23C334.602,152.984 334.07,152.684 333.332,152L333.332,151.332C334.332,150.832 335.227,150.961 336.332,151L337.105,151.168C338.547,151.434 339.871,151.551 341.332,151.332C343.113,150.629 344.742,149.727 346.332,148.668L345.332,147.855L344.332,147L344.332,146.668L346.668,146.668L346.793,147.25C347.004,148.008 347.305,148.637 347.668,149.332C346.926,149.711 346.18,150.086 345.438,150.457L344.805,150.777C342.348,152.016 340.73,152.473 338,152.332C336.996,152.246 336,152.129 335,152L338,153.332C336.824,154.727 335.438,155.332 333.813,156.063L333.035,156.422C331.039,157.34 329.488,157.711 327.27,157.688L326.516,157.684C325.898,157.68 325.281,157.672 324.668,157.668L325.668,158.332L325.668,159.332C321.469,160.477 317.309,161.211 312.938,160.934C311.965,160.934 311.965,160.934 311.098,161.512L310.25,162.168C309.73,162.566 309.203,162.953 308.668,163.332L308,163.332L308,164L309.125,164.082C311.398,164.371 313.477,165.25 315.375,166.52L316.332,167.332L316.332,168.332C314.813,168.148 313.699,167.742 312.355,167.02C310.625,166.129 309.141,165.48 307.199,165.23L306.332,165.332C305.516,165.938 305.516,165.938 304.758,166.781L303.883,167.688C303.586,168.004 303.285,168.32 302.98,168.645C302.387,169.27 301.793,169.891 301.195,170.508L300.402,171.352C299.668,172 299.668,172 298.945,172.281L298.332,172.332L297.668,172C297.793,170.996 297.961,170.387 298.543,169.551L299.188,168.793C299.828,168.055 299.828,168.055 300.332,167.332L300.332,166.332C301.332,165.605 301.332,165.605 302.332,165C301.973,164.938 301.609,164.879 301.238,164.816L299.793,164.563L299.07,164.445C297.563,164.172 296.352,163.762 295,163L295,162.332C295.934,161.867 296.66,161.996 297.699,162.039L298.926,162.09L300.207,162.145L301.5,162.199C302.555,162.242 303.609,162.285 304.668,162.332C304.676,161.863 304.684,161.391 304.688,160.918L304.703,160.121C304.645,158.828 304.289,157.793 303.668,156.668C302.281,154.613 300.551,153.402 298.418,152.18L297.668,151.668L297.332,150.668C300.094,151.707 302.215,153.316 304.113,155.57C304.902,156.656 305.41,157.676 305.668,159C305.734,159.906 305.715,160.754 305.668,161.668L306.668,161L307.352,160.555C309.207,159.242 310.172,157.977 311.176,155.953C311.684,154.965 312.25,154.063 312.875,153.145L313.43,152.332C314.023,151.641 314.496,151.34 315.332,151L316,152L316.258,151.363C317.316,149 318.586,147.527 320.668,146C325.586,142.605 331.191,139.5 337,138L337.668,138L337.332,140C337.703,139.688 338.07,139.375 338.438,139.063L339.059,138.535C339.664,138.027 339.664,138.027 340.113,137.492C340.668,137 340.668,137 341.352,136.766C342.234,136.59 343.117,136.426 344,136.27L344.984,136.094C347.691,135.645 350.309,135.563 353.043,135.652C354.266,135.711 354.266,135.711 355.172,135.496C356.363,135.262 357.523,135.359 358.73,135.438" style="fill:rgb(52,47,37);fill-rule:nonzero;"/>
    </g>
    <g transform="matrix(0.168928,0,0,0.160667,-36.6709,-18.0177)">
        <path d="M293.332,149.332C296.676,150.336 299.852,152.266 302.387,154.66C303.469,155.848 304.398,157.121 304.871,158.668C305.066,159.676 305.039,160.645 305,161.668L304.668,162.332L295,162.332C295.879,163.348 295.879,163.348 296.793,163.637C298.758,164.148 300.645,164.5 302.668,164.668C301.789,165.676 301.156,166.273 299.895,166.75C297.637,167.211 295.461,167.387 293.168,167.375L292.453,167.379C290.832,167.375 289.273,167.227 287.668,167C286.777,164.219 286.684,161.406 287.207,158.531C288.105,155.188 289.926,152.707 292.332,150.27C292.664,149.957 292.996,149.641 293.332,149.332" style="fill:rgb(249,174,175);fill-rule:nonzero;"/>
    </g>
    <g transform="matrix(0.168928,0,0,0.160667,-36.6709,-18.0177)">
        <path d="M257,225.668C258.57,226.129 259.77,226.852 260.988,227.953C261.918,228.93 262.766,229.965 263.605,231.02L264.09,231.629C265.113,232.949 265.875,234.109 266.113,235.797C266.133,237.203 266.078,238.41 265.5,239.707C264.418,241.574 262.992,243.07 261.141,244.18C258.781,245.332 256.301,246 253.668,246L252,226C253.637,225.453 255.293,225.547 257,225.668M294.668,268.668C295.793,268.719 296.449,269.066 297.43,269.633C297.848,269.906 298.27,270.18 298.688,270.457C300.805,271.82 302.957,273.082 305.168,274.293L306,274.746C307.648,275.645 309.316,276.504 311,277.332C310.715,279.238 309.824,280.496 308.668,282C307.473,283.277 306.41,283.828 304.77,284.438C302.813,285.031 301.035,285.293 299,285C297.363,284.563 296.051,283.977 294.73,282.918L294,282L293.555,281.453C292.352,279.797 291.941,278.125 291.695,276.105C291.645,274.148 292.094,272.414 293.008,270.684C293.492,269.93 294.035,269.301 294.668,268.668M320.668,282.668C322.316,283.043 323.574,283.867 324.918,284.855L325.531,285.301C327.352,286.641 329.035,288.105 330.668,289.668L331.367,290.313C332.211,291.117 332.922,291.879 333.563,292.855L333.668,293.668C333.125,294.668 333.125,294.668 332.332,295.668L331.793,296.5C330.5,297.859 328.793,298.961 327.004,299.551C325.324,299.84 323.574,299.914 321.918,299.461C320.359,298.773 319.246,297.738 318.18,296.422C317.105,294.844 316.449,293.285 316.219,291.387C316.172,289.941 316.289,288.805 316.73,287.418C317.617,285.824 318.555,284.469 319.813,283.145C320.094,282.988 320.375,282.828 320.668,282.668M249,183C251.191,182.816 253.262,182.875 255.324,183.676C256.957,184.457 258.043,185.25 259.082,186.75C260.387,189.32 261.129,192.109 261.07,195C260.953,196.129 260.59,197.047 260,198C258.488,200.039 256.801,201.539 254.563,202.75C253.176,203.137 251.766,203.227 250.332,203.332C250.027,202.418 249.918,201.715 249.84,200.762L249.758,199.797L249.676,198.758L249.586,197.68C249.527,196.93 249.465,196.18 249.406,195.426C249.313,194.281 249.219,193.137 249.125,191.992L248.945,189.797L248.863,188.766C248.719,186.949 248.605,185.156 248.668,183.332L249,183ZM299.098,296.66C301.793,297.746 303.922,299.027 305.797,301.262C306.637,302.414 307.285,303.621 307.668,305L307.668,307L286,307C286,304.234 286.285,302.965 287.563,300.645C288.844,299.016 290.313,297.547 292.23,296.688C294.469,295.992 296.859,295.992 299.098,296.66" style="fill:rgb(119,189,210);fill-rule:nonzero;"/>
    </g>
    <g transform="matrix(0.168928,0,0,0.160667,-36.6709,-18.0177)">
        <path d="M272.668,202.668C273.027,203.391 273.098,203.902 273.191,204.703L273.293,205.559L273.398,206.488L273.508,207.449C273.586,208.121 273.66,208.793 273.738,209.465C273.852,210.488 273.973,211.508 274.09,212.527L274.313,214.488L274.422,215.402C274.641,217.387 274.707,219.336 274.668,221.332C273.176,221.41 271.926,221.41 270.48,220.98C267.313,219.195 265.117,216.406 263.254,213.316C262.695,212.168 262.473,210.98 262.531,209.703C262.805,208.289 263.488,207.152 264.332,206C265.68,204.461 267.258,203.598 269.164,202.895C270.379,202.563 271.414,202.574 272.668,202.668" style="fill:rgb(119,189,209);fill-rule:nonzero;"/>
    </g>
    <g transform="matrix(0.168928,0,0,0.160667,-36.6709,-18.0177)">
        <path d="M276.668,246.668L278,246.668L278.43,247.852C280.227,252.715 282.602,256.652 286.102,260.512L286.668,261.332C286.664,262.047 286.664,262.047 286.332,262.668C285.23,263.621 283.941,264.203 282.523,264.508C281.258,264.594 280.277,264.438 279.09,263.988C276.57,262.715 274.156,260.961 272.508,258.641C271.707,257.176 271.309,255.676 271.332,254C271.449,252.727 271.77,251.715 272.434,250.621C273.629,248.953 274.961,247.805 276.668,246.668" style="fill:rgb(119,189,210);fill-rule:nonzero;"/>
    </g>
    <g transform="matrix(0.168928,0,0,0.160667,-36.6709,-18.0177)">
        <path d="M243.48,123.355C244.617,123.516 245.027,123.688 246,124.375C246.668,125.332 246.668,125.332 246.957,126.5C247,127.668 247,127.668 246.73,128.457L246.668,129.332C247.219,130.039 247.719,130.574 248.375,131.168L248.867,131.633C249.355,132.09 249.844,132.547 250.332,133L251.199,133.953L252,134.668C252.742,134.797 252.742,134.797 253.438,134.605L254.668,134.332L254.668,135C253.77,135.543 253.77,135.543 252.668,136C251.918,135.855 251.918,135.855 251,135.332C250.133,134.535 249.348,133.668 248.563,132.793C248.348,132.555 248.133,132.32 247.91,132.078C247.383,131.5 246.855,130.918 246.332,130.332L245.332,130.668L245.672,131.223C246.172,132.055 246.668,132.891 247.168,133.73L247.695,134.602L248.199,135.453L248.664,136.23C249.051,137.113 249.098,137.711 249,138.668C248.523,139.402 248.523,139.402 247.895,140.125C246.859,141.379 246.219,142.477 245.668,144C243.91,143.785 242.59,142.895 241.117,141.988C239.125,140.805 237.207,140.234 234.875,140.188C231.262,140.234 227.863,141.379 224.668,143L224,143L224.332,143.668L224.973,143.543C225.98,143.355 226.988,143.176 228,143L229.117,142.797C234.469,141.906 238.582,142.863 243.586,144.703C244.539,145.082 245.434,145.516 246.332,146L246.332,146.668C244.824,146.168 243.313,145.66 241.809,145.145L241.051,144.883C240.543,144.711 240.031,144.535 239.523,144.359C235.828,143.105 232.16,143.199 228.355,143.914C227.344,144.148 226.336,144.395 225.332,144.668C227.215,147.547 229.809,149.758 232.867,151.344C234.758,152.109 236.656,152.395 238.695,152.27C240.703,151.984 242.477,151.422 244.313,150.57L245,150.332L246,150.668L246,153.668L245.332,153.668L245.332,151.332L244.371,151.688L243.105,152.145L242.473,152.379C240.289,153.168 238.313,153.547 236,153.332C234.957,153.094 233.988,152.742 233,152.332L232.336,152.063C228.938,150.527 225.855,147.703 223.688,144.688L223,143.668C223.164,143.074 223.164,143.074 223.668,142.332C224.52,141.828 225.43,141.48 226.355,141.125L227.137,140.816C230.461,139.535 233.406,139.02 237,139.332C239.465,139.859 241.543,140.879 243.648,142.242C244.355,142.715 244.355,142.715 245.332,143L245.426,142.262C245.777,140.906 246.617,140.121 247.535,139.094L248,138.332C247.988,136.426 246.66,134.578 245.742,132.965C245.309,132.262 244.879,131.621 244.332,131C243.348,130.57 242.773,130.543 241.711,130.625L241,130.668C240.145,130.043 240.145,130.043 239.668,129.332C239.254,128.094 239.148,126.953 239.332,125.668C239.898,124.738 240.359,124.188 241.289,123.621C242.102,123.293 242.609,123.27 243.48,123.355" style="fill:rgb(5,4,4);fill-rule:nonzero;"/>
    </g>
    <g transform="matrix(0.168928,0,0,0.160667,-36.6709,-18.0177)">
        <path d="M257,118.668C258.008,119.609 258.555,120.34 259,121.645C259,122.945 258.516,123.816 258,125C258.133,126.578 258.871,127.973 259.52,129.395C260.668,131.914 260.668,131.914 260.668,132.668L263,132.668L263.23,131.375C263.715,129.188 264.711,127.324 265.895,125.438C267.398,123.938 269.113,122.742 271.043,121.855C272.281,121.613 273.406,121.625 274.668,121.668C273.875,122.48 273.109,123.25 272.203,123.934C270.289,125.547 268.809,127.832 267.867,130.148C267.648,130.832 267.441,131.52 267.25,132.211C267,133 267,133 266.332,133.668C264.34,133.813 262.285,133.832 260.332,133.332C259.625,132.793 259.625,132.793 259.23,132.082C259.023,131.508 258.836,130.922 258.668,130.332C258.355,129.547 258.043,128.762 257.73,127.98C257.484,127.32 257.242,126.66 257,126L256,126L256.145,126.988C256.48,129.336 256.75,131.621 256.668,134L254.668,134.668L255.332,133.668L256,133.668L255.91,133.105C255.77,132.266 255.637,131.426 255.5,130.582L255.355,129.703L255.219,128.848L255.094,128.066C255,127.332 255,127.332 255,126L253.918,125.793C252.668,125.332 252.668,125.332 251.855,124.438C251.332,123.332 251.332,123.332 251.168,122.168C251.332,121 251.332,121 251.875,119.895C252.668,119 252.668,119 253.605,118.52C254.895,118.293 255.738,118.301 257,118.668" style="fill:rgb(5,4,4);fill-rule:nonzero;"/>
    </g>
    <g transform="matrix(0.168928,0,0,0.160667,-36.6709,-18.0177)">
        <path d="M352.668,140L352.332,141C351.555,141.344 350.809,141.617 350,141.875C349.48,142.051 348.961,142.227 348.445,142.402L347.582,142.691C342.148,144.523 336.844,146.523 331.668,149L330.977,149.328C321.723,153.594 321.723,153.594 313.668,159.668C318.043,159.805 318.043,159.805 322.352,159.145C323,159 323,159 324.332,159L323.668,158.375L323,157.668L323,157L324.332,157.02C328.258,157.004 331.152,156.457 334.609,154.57C335.668,154 335.668,154 336.332,154L336.332,153.332L335.582,153.23C334.602,152.984 334.07,152.684 333.332,152L333.332,151.332C334.332,150.832 335.227,150.961 336.332,151L337.105,151.168C338.547,151.434 339.871,151.551 341.332,151.332C343.113,150.629 344.742,149.727 346.332,148.668L345.332,147.855L344.332,147L344.332,146.668L346.668,146.668L346.793,147.25C347.004,148.008 347.305,148.637 347.668,149.332C346.926,149.711 346.18,150.086 345.438,150.457L344.805,150.777C342.348,152.016 340.73,152.473 338,152.332C336.996,152.246 336,152.129 335,152L338,153.332C336.824,154.727 335.438,155.332 333.813,156.063L333.035,156.422C331.039,157.34 329.488,157.711 327.27,157.688L326.516,157.684C325.898,157.68 325.281,157.672 324.668,157.668L325.668,158.332L325.668,159.332C321.469,160.477 317.309,161.211 312.938,160.934C311.965,160.934 311.965,160.934 311.098,161.512L310.25,162.168C309.73,162.566 309.203,162.953 308.668,163.332L308,163.332L308,164L309.125,164.082C311.398,164.371 313.477,165.25 315.375,166.52L316.332,167.332L316.332,168.332C314.828,168.152 313.727,167.758 312.395,167.043C310.922,166.273 309.516,165.676 307.914,165.246L307.332,165L306.668,164C308.109,162.43 309.625,161.168 311.391,159.977C312.238,159.398 313.066,158.797 313.895,158.184C324.363,150.516 336.395,145.348 348.668,141.332C342.867,142.613 337.227,144.535 331.816,146.988C331,147.332 331,147.332 330.332,147.332L330.332,146.668C336.398,143.898 342.613,141.629 349.125,140.145C349.371,140.09 349.617,140.035 349.871,139.977C350.969,139.742 351.582,139.637 352.668,140" style="fill:rgb(43,46,31);fill-rule:nonzero;"/>
    </g>
    <g transform="matrix(0.168928,0,0,0.160667,-36.6709,-18.0177)">
        <path d="M328.332,164.668C328.965,164.73 328.965,164.73 329.668,165C330.004,165.738 330.004,165.738 330.23,166.645C330.531,167.855 330.531,167.855 331,169C331.719,169.262 332.453,169.492 333.188,169.707L334.398,170.066L335.332,170.332C335.227,170.969 335.227,170.969 335,171.668C334.34,172.016 333.676,172.352 333,172.668C332.242,173.801 332.211,174.387 332.125,175.73L332.051,176.828L332,177.668L331,178C330.414,177.656 330.414,177.656 329.77,177.168C328.785,176.512 328.785,176.512 327.648,176.285C326.977,176.375 326.328,176.512 325.668,176.668C325.223,176.734 324.777,176.797 324.332,176.855L323.332,177L323.48,175.793L323.559,175.047C323.668,174.332 323.668,174.332 324.02,173.355L324,172.332C323.207,171.238 322.297,170.281 321.332,169.332L321.668,168.332L322.543,168.344C323.734,168.313 324.832,168.238 326,168C326.914,167.355 327.477,166.648 328,165.668L328.332,164.668Z" style="fill:rgb(248,236,135);fill-rule:nonzero;"/>
    </g>
    <g transform="matrix(0.168928,0,0,0.160667,-36.6709,-18.0177)">
        <path d="M275,123C275.688,125.059 275.52,127.512 275.332,129.668C274.813,132.047 273.691,134.004 272.332,136L267.332,133.668C267.738,130.969 268.754,128.887 270.332,126.668C273.578,123 273.578,123 275,123" style="fill:rgb(249,174,175);fill-rule:nonzero;"/>
    </g>
    <g transform="matrix(0.168928,0,0,0.160667,-36.6709,-18.0177)">
        <path d="M254.668,257C256.191,257.43 257.227,258.313 258.379,259.355C259.422,260.438 260.055,261.586 260.582,263C260.816,264.875 260.676,266.469 260.039,268.238C259.379,269.594 258.449,270.668 257.332,271.668C256.355,272.168 256.355,272.168 255.668,272.332C255.301,271.113 255.234,269.918 255.156,268.652L255.113,267.965C255.082,267.484 255.051,267.004 255.023,266.523C254.98,265.801 254.934,265.078 254.887,264.352C254.734,261.898 254.629,259.461 254.668,257" style="fill:rgb(119,189,210);fill-rule:nonzero;"/>
    </g>
    <g transform="matrix(0.168928,0,0,0.160667,-36.6709,-18.0177)">
        <path d="M338.668,200C339.27,200.02 339.27,200.02 340,200.332L340.375,201.48C340.574,202.129 340.574,202.129 341,202.668C342.094,203.078 343.176,203.227 344.332,203.332C344.23,203.957 344.23,203.957 344,204.668L342.98,205.355C342.406,205.746 342.406,205.746 342,206.332C341.824,207.574 341.883,208.758 342,210C341.25,209.895 341.25,209.895 340.332,209.668C340.117,209.484 339.902,209.305 339.684,209.117L339,208.668C338.047,208.762 338.047,208.762 337.082,209.105L336.09,209.414L335.332,209.668L335.391,208.934C335.438,207.934 335.449,206.996 335.332,206C334.867,205.195 334.324,204.676 333.668,204L333.668,202.668L334.289,202.629L335.105,202.563L335.914,202.504C336.688,202.391 336.688,202.391 337.23,201.863C337.73,201.258 338.207,200.637 338.668,200" style="fill:rgb(244,234,140);fill-rule:nonzero;"/>
    </g>
    <g transform="matrix(0.168928,0,0,0.160667,-36.6709,-18.0177)">
        <path d="M349.332,141.332L348.477,141.633C335.938,146.027 323.5,151.113 312.906,159.301C311.676,160.25 310.418,161.152 309.156,162.059C308.574,162.492 308.004,162.945 307.453,163.414L306.668,164C305.73,163.918 305.73,163.918 305,163.668C312.238,155.953 323.555,149.715 333.332,146C333.844,145.797 334.352,145.594 334.859,145.391C338.043,144.137 341.254,142.996 344.52,141.98L345.512,141.664L346.438,141.383L347.258,141.133C348.066,140.988 348.563,141.074 349.332,141.332" style="fill:rgb(254,253,230);fill-rule:nonzero;"/>
    </g>
    <g transform="matrix(0.168928,0,0,0.160667,-36.6709,-18.0177)">
        <path d="M371.668,150.668L372.668,151C373.012,151.66 373.344,152.328 373.668,153C374.434,153.383 375.027,153.438 375.875,153.52L376.699,153.605L377.332,153.668C377.16,154.473 377.051,154.938 376.52,155.582L376,156L375.332,156L375.668,160L374.668,160.332L374.082,160.02C373.301,159.598 373.301,159.598 372.207,159.563C370.91,159.676 370.117,160.016 369,160.668L369,156.332L367.668,155.668L367,155C367.125,154.293 367.125,154.293 367.332,153.668L368.563,153.668C369.305,153.613 369.305,153.613 370,153.332C370.723,152.523 371.203,151.645 371.668,150.668" style="fill:rgb(245,235,140);fill-rule:nonzero;"/>
    </g>
    <g transform="matrix(0.168928,0,0,0.160667,-36.6709,-18.0177)">
        <path d="M278,274C279.133,274.352 279.844,274.816 280.668,275.668C282.762,278.035 283.652,281.047 284.539,284.027C284.91,285.906 284.836,287.785 284.27,289.605C282.98,291.875 281.594,293.094 279.363,294.441C277.039,295.703 274.719,296.746 272.043,296.855C270.953,296.793 270.063,296.652 269.082,296.168C266.215,294.191 264.531,291.043 263,288C262.371,286.598 261.98,285.375 262.023,283.828C262.289,281.992 262.969,280.531 264.055,279.035C265.75,277.094 267.934,275.602 270.332,274.668C272.895,273.816 275.34,273.746 278,274M267.453,277.109C265.758,278.309 264.18,279.797 263.223,281.668C262.734,283.125 262.734,284.496 263,286C263.531,287.313 264.25,288.469 265,289.668C265.188,290.012 265.375,290.359 265.57,290.715C266.703,292.793 267.73,294.289 269.668,295.668C271.031,296.121 272.254,296.18 273.668,296C276.66,295.09 279.691,293.543 281.984,291.391C282.91,290.355 283.668,289.367 284,288C284.238,285.285 283.59,282.75 282.547,280.246C281.527,278.105 280.539,276.531 278.59,275.133C277.129,274.395 275.777,274.531 274.168,274.574C271.605,274.777 269.613,275.754 267.453,277.109" style="fill:rgb(5,4,5);fill-rule:nonzero;"/>
    </g>
    <g transform="matrix(0.168928,0,0,0.160667,-36.6709,-18.0177)">
        <path d="M382.332,197.332L383.668,197.332L384,200.668L384.957,200.918L386,201.332C386.398,202.027 386.398,202.027 386.668,202.668L386.105,202.852C385.313,203.172 384.68,203.473 384,204C383.578,204.984 383.426,205.938 383.332,207C382.707,206.75 382.707,206.75 382,206.332L381.332,205L377.332,205C377.668,203.668 377.668,203.668 378,203C378.102,201.512 377.863,200.391 377.332,199L381.332,199L382,197.668L382.332,197.332Z" style="fill:rgb(119,189,210);fill-rule:nonzero;"/>
    </g>
    <g transform="matrix(0.168928,0,0,0.160667,-36.6709,-18.0177)">
        <path d="M232.332,139.668L232.332,140.332L231.164,140.664L229.625,141.105L228.855,141.32C227.367,141.75 226.051,142.281 224.668,143L224,143L224.332,143.668L224.973,143.543C225.98,143.355 226.988,143.176 228,143L229.117,142.797C234.469,141.906 238.582,142.863 243.586,144.703C244.539,145.082 245.434,145.516 246.332,146L246.332,146.668C244.824,146.168 243.313,145.66 241.809,145.145L241.051,144.883C240.543,144.711 240.031,144.535 239.523,144.359C235.828,143.105 232.16,143.199 228.355,143.914C227.344,144.148 226.336,144.395 225.332,144.668C227.215,147.547 229.809,149.758 232.867,151.344C234.758,152.109 236.656,152.395 238.695,152.27C240.703,151.984 242.477,151.422 244.313,150.57L245,150.332L246,150.668L246,153.668L245.332,153.668L245.332,151.332L244.371,151.688L243.105,152.145L242.473,152.379C240.289,153.168 238.313,153.547 236,153.332C234.957,153.094 233.988,152.742 233,152.332L232.336,152.063C228.938,150.527 225.855,147.703 223.688,144.688L223,143.668C223.254,143.039 223.254,143.039 223.668,142.332C224.242,141.973 224.242,141.973 224.926,141.703L225.676,141.402L226.457,141.105L227.234,140.793C228.977,140.105 230.438,139.613 232.332,139.668" style="fill:rgb(7,6,6);fill-rule:nonzero;"/>
    </g>
    <g transform="matrix(0.168928,0,0,0.160667,-36.6709,-18.0177)">
        <path d="M274.668,121.668C273.875,122.48 273.109,123.25 272.203,123.934C270.289,125.547 268.789,127.832 267.879,130.16C267.664,130.852 267.465,131.547 267.285,132.246L267,133L266,133.332C265.215,133.137 264.438,132.914 263.668,132.668C264.215,130.094 264.961,128.031 266.668,126C268.77,123.773 271.445,121.484 274.668,121.668" style="fill:rgb(249,174,175);fill-rule:nonzero;"/>
    </g>
    <g transform="matrix(0.168928,0,0,0.160667,-36.6709,-18.0177)">
        <path d="M352.668,140L352.332,141C351.555,141.344 350.809,141.617 350,141.875C349.48,142.051 348.961,142.227 348.445,142.402L347.582,142.691C342.145,144.523 336.855,146.551 331.668,149C330.82,149.395 329.973,149.793 329.125,150.188L328.113,150.668C327.332,151 327.332,151 326.668,151L326.668,150.332C333.762,146.777 341.074,143.672 348.668,141.332C342.867,142.613 337.227,144.535 331.816,146.988C331,147.332 331,147.332 330.332,147.332L330.332,146.668C336.398,143.898 342.613,141.629 349.125,140.145C349.371,140.09 349.617,140.035 349.871,139.977C350.969,139.742 351.582,139.637 352.668,140" style="fill:rgb(9,17,5);fill-rule:nonzero;"/>
    </g>
    <g transform="matrix(0.168928,0,0,0.160667,-36.6709,-18.0177)">
        <path d="M360,174C360.535,174.5 360.535,174.5 361.063,175.188C363.176,177.734 365.672,179.309 368.668,180.668C368.434,181.262 368.434,181.262 368,182C367.266,182.57 367.266,182.57 366.367,183.129L365.383,183.742L364.355,184.375L363.328,185.016C362.699,185.406 362.074,185.797 361.441,186.184C360.844,186.559 360.254,186.941 359.668,187.332C358.68,187.266 358.086,187.055 357.25,186.523C355.602,185.18 354.02,183.762 352.5,182.27C352.328,182.105 352.156,181.938 351.977,181.766C351.016,180.801 350.402,179.973 350,178.668C351.863,177.457 353.766,176.391 355.75,175.395L356.547,174.984L357.316,174.598L358.008,174.25C358.668,174 358.668,174 360,174M356.293,175.918C354.449,176.926 352.605,177.852 350.668,178.668C352.906,181.922 355.594,184.645 359,186.668C361.223,185.398 363.418,184.094 365.582,182.73L366.211,182.34C366.707,182.023 367.188,181.68 367.668,181.332L367.668,180.668L367.078,180.504C364.246,179.563 362.367,177.773 360.332,175.668L359.668,174.668C358.324,174.668 357.434,175.281 356.293,175.918M385,228C385.297,228.66 385.59,229.32 385.883,229.984C386.23,230.77 386.586,231.555 386.941,232.34L387.582,233.77L387.906,234.473C388.422,235.637 388.668,236.371 388.668,237.668C387.363,238.094 386.055,238.516 384.75,238.938L383.648,239.297C376.426,241.625 376.426,241.625 374.668,241.332C373.852,240.273 373.367,239.051 372.84,237.828L372.395,236.797L371.938,235.73L371.469,234.645C371.09,233.762 370.711,232.883 370.332,232C370.711,231.531 370.711,231.531 371.332,231C372.227,230.719 372.227,230.719 373.293,230.5L374.473,230.25L375.707,230C379.273,229.273 379.273,229.273 382.738,228.191C383.508,227.945 384.203,227.922 385,228M380.793,229.395C377.68,230.375 374.531,231.039 371.332,231.668C371.66,233.531 372.359,235.176 373.082,236.918L373.469,237.898L373.859,238.828L374.207,239.68L374.668,240.332C375.438,240.668 375.438,240.668 376.332,240.668C377.254,240.523 377.254,240.523 378.203,240.234L379.281,239.934L380.395,239.605L381.492,239.297C383.723,238.656 385.867,237.91 388,237C387.684,235.996 387.348,234.996 387,234L386.785,233.371C386.543,232.691 386.297,232.012 386.043,231.332L385.809,230.656C385.551,229.938 385.551,229.938 385,229C383.566,228.305 382.223,228.922 380.793,229.395" style="fill:rgb(5,4,5);fill-rule:nonzero;"/>
    </g>
    <g transform="matrix(0.168928,0,0,0.160667,-36.6709,-18.0177)">
        <path d="M242.918,123.895C244,124 244,124 245.105,124.543C246,125.332 246,125.332 246.332,126.313C246.332,127.332 246.332,127.332 246.145,128.207C245.668,129 245.668,129 244.73,129.77C243.668,130.332 243.668,130.332 242.813,130.5C242,130.332 242,130.332 241.082,129.707C240.332,129 240.332,129 240,128.332C239.895,127.23 239.895,127.23 240,126C240.625,125.043 240.625,125.043 241.332,124.332C242,124 242,124 242.918,123.895" style="fill:rgb(119,189,210);fill-rule:nonzero;"/>
    </g>
    <g transform="matrix(0.168928,0,0,0.160667,-36.6709,-18.0177)">
        <path d="M358.73,135.438L359.461,135.473C360.086,135.512 360.711,135.586 361.332,135.668L362,136.332C360.773,136.742 359.91,136.613 358.625,136.5C356.961,136.367 355.406,136.336 353.754,136.586C352.848,136.684 351.973,136.652 351.063,136.625C349.063,136.609 347.141,136.82 345.168,137.105L344.297,137.223C342.77,137.457 341.586,137.703 340.332,138.668C339.535,139.434 338.785,140.238 338.027,141.047L337.332,141.668L336.332,141.668L336.668,139C333.332,140.117 330.305,141.469 327.285,143.277L326.555,143.707L325.914,144.098L325.332,144.332L324.332,144C325.84,142.641 327.535,141.852 329.355,141L330.297,140.555C335.785,138 335.785,138 337.668,138L337.332,140C337.703,139.688 338.07,139.375 338.438,139.063L339.059,138.535C339.664,138.027 339.664,138.027 340.113,137.492C340.668,137 340.668,137 341.352,136.766C342.234,136.59 343.117,136.426 344,136.27L344.984,136.094C347.691,135.645 350.309,135.563 353.043,135.652C354.266,135.711 354.266,135.711 355.172,135.496C356.363,135.262 357.523,135.359 358.73,135.438M344.332,146.668L346.668,146.668L346.793,147.25C347.004,148.008 347.305,148.637 347.668,149.332C346.926,149.711 346.18,150.086 345.438,150.457L344.805,150.777C342.348,152.016 340.73,152.473 338,152.332C336.996,152.246 336,152.129 335,152L338,153.332C336.824,154.727 335.438,155.332 333.813,156.063L333.035,156.422C331.039,157.34 329.488,157.711 327.27,157.688L326.516,157.684C325.898,157.68 325.281,157.672 324.668,157.668L325.668,158.332L325.668,159.332L322,160L321.668,159.332L324.332,159L323.668,158.375L323,157.668L323,157C323.66,157.012 323.66,157.012 324.332,157.02C328.258,157.004 331.152,156.457 334.609,154.57C335.668,154 335.668,154 336.332,154L336.332,153.332L335.582,153.23C334.602,152.984 334.07,152.684 333.332,152L333.332,151.332C334.332,150.832 335.227,150.961 336.332,151L337.105,151.168C338.547,151.434 339.871,151.551 341.332,151.332C343.113,150.629 344.742,149.727 346.332,148.668L345.332,147.855L344.332,147L344.332,146.668Z" style="fill:rgb(5,4,5);fill-rule:nonzero;"/>
    </g>
    <g transform="matrix(0.168928,0,0,0.160667,-36.6709,-18.0177)">
        <path d="M255.645,119.063C256.668,119.332 256.668,119.332 257.438,119.918C258,120.668 258,120.668 258.293,121.48C258.332,122.332 258.332,122.332 258.082,123.207C257.41,124.488 257.41,124.488 256.668,125C255.563,125.313 255.563,125.313 254.332,125.332C253.207,124.73 253.207,124.73 252.332,124C252,123.332 252,123.332 251.875,122.23L252,121C252.77,120.043 252.77,120.043 253.668,119.332C254.668,119 254.668,119 255.645,119.063" style="fill:rgb(119,189,210);fill-rule:nonzero;"/>
    </g>
    <g transform="matrix(0.168928,0,0,0.160667,-36.6709,-18.0177)">
        <path d="M304,163.668C304.91,163.535 305.742,163.621 306.668,163.668L307.332,165L306.59,165.414C305.664,166 304.996,166.609 304.238,167.398L303.453,168.203C302.914,168.766 302.375,169.324 301.836,169.887L301.051,170.691L300.344,171.426C299.668,172 299.668,172 298.953,172.27L298.332,172.332L297.668,172C297.793,170.996 297.961,170.387 298.543,169.551L299.188,168.793C299.828,168.055 299.828,168.055 300.332,167.332L300.332,166.332C300.883,165.906 300.883,165.906 301.605,165.5C302.34,165.082 302.926,164.746 303.5,164.117L304,163.668Z" style="fill:rgb(5,4,4);fill-rule:nonzero;"/>
    </g>
    <g transform="matrix(0.168928,0,0,0.160667,-36.6709,-18.0177)">
        <path d="M343.668,157.332L345,157.332L346.332,158.668C347.215,158.934 347.215,158.934 348,159C347.875,159.625 347.875,159.625 347.668,160.332L347,161C346.918,161.66 346.918,161.66 346.957,162.375L347,163.668L345.793,163.625C344.527,163.621 343.516,163.859 342.332,164.332L342.332,161.668L341.668,161.668L341.668,161L341,161L340.668,160L341.793,159.605C342.438,159.352 342.438,159.352 343,159C343.5,158.152 343.5,158.152 343.668,157.332" style="fill:rgb(241,228,129);fill-rule:nonzero;"/>
    </g>
    <g transform="matrix(0.168928,0,0,0.160667,-37.9928,-18.0807)">
        <path d="M399.785,170.191L400.668,170.332C401.379,171.164 401.379,171.164 402.082,172.293C403.27,174.148 404.57,175.707 406.148,177.262L406.668,178C406.621,178.832 406.621,178.832 406.332,179.668C405.703,180.113 405.703,180.113 404.891,180.438L404,180.793L403.063,181.145L402.137,181.523C400.434,182.188 400.434,182.188 399.668,182.332C398.688,181.988 398.332,181.664 397.641,180.867C396.863,179.805 396.094,178.738 395.332,177.668L394.934,177.109C393.281,174.777 393.281,174.777 392.668,173.668L392.668,172.332L393.883,171.98L395.457,171.52L396.262,171.289L397.027,171.063L397.738,170.859C398.461,170.625 399.031,170.328 399.785,170.191M397.996,171.363L397.23,171.594L396.438,171.832L395.633,172.074C394.977,172.27 394.32,172.469 393.668,172.668L393.668,173.668C394.156,174.473 394.672,175.266 395.207,176.043L395.668,176.715C395.969,177.16 396.273,177.605 396.578,178.051C397.125,178.855 397.672,179.664 398.207,180.48L398.68,181.188L399,181.668C401.395,180.91 403.691,179.988 406,179C405.496,177.824 404.797,177.047 403.918,176.125C402.613,174.719 401.652,173.305 400.762,171.613C400.621,171.41 400.48,171.207 400.332,171C399.422,171 398.855,171.105 397.996,171.363" style="fill:rgb(5,4,5);fill-rule:nonzero;"/>
    </g>
    <g transform="matrix(0.168928,0,0,0.160667,-36.6709,-18.0177)">
        <path d="M293.332,266.668C294.324,266.867 295.031,267.172 295.867,267.738L296.527,268.184L297.207,268.645L297.895,269.105C298.777,269.699 299.578,270.246 300.332,271C299,271 299,271 298.188,270.551C297.617,270.168 297.047,269.789 296.48,269.406C295.711,268.938 295.711,268.938 294.949,269.035C294.313,269.301 294.313,269.301 293.863,269.809C292.605,271.766 292.121,273.68 292,276C292.105,277.844 292.559,279.273 293.543,280.832L293.992,281.469L294.332,282L294.332,282.668C295.313,283.176 296.305,283.598 297.332,284C298.363,284.402 299.352,284.824 300.332,285.332C299.566,285.586 299.043,285.672 298.234,285.563C296.387,285.043 294.977,284.387 293.586,283.047C292.266,281.438 291.531,279.684 291.137,277.648C290.902,275.566 290.934,273.641 291.668,271.668C292.344,270.262 293.137,268.965 294,267.668L293.332,267.332L293.332,266.668Z" style="fill:rgb(12,8,10);fill-rule:nonzero;"/>
    </g>
    <g transform="matrix(0.168928,0,0,0.160667,-36.6709,-18.0177)">
        <path d="M249.332,182.332C252.121,182.137 254.445,182.504 257,183.668C257.984,184.211 258.66,184.766 259.332,185.668C260.855,188.52 261.848,191.66 261.746,194.914C261.566,196.594 261.129,198.012 260.152,199.402C259.027,200.742 257.891,201.855 256.332,202.668L255.332,202.332C256.184,201.445 257.082,200.645 258.02,199.855C259.211,198.82 260,197.883 260.563,196.395C261,193.34 260.328,190.352 259.207,187.5C258.188,185.93 256.977,184.875 255.34,183.961C254.164,183.445 252.961,183.355 251.688,183.25L250.898,183.172C250.266,183.109 249.633,183.055 249,183L249.332,182.332Z" style="fill:rgb(11,8,9);fill-rule:nonzero;"/>
    </g>
    <g transform="matrix(0.168928,0,0,0.160667,-36.6709,-18.0177)">
        <path d="M324.668,144L324.668,144.668C324.121,145.051 323.555,145.406 322.98,145.75C320.059,147.551 320.059,147.551 317.918,150.168L317.332,151.332L316.75,152.48L316.332,153.332L315.668,153.332L315.332,152.668L314.332,152.668C313.637,153.527 313.637,153.527 312.98,154.605L312.281,155.695L311.668,156.668L311,157.668L310.332,157.332C311.609,155.035 312.871,152.93 314.668,151L315.668,151.332L316,152L316.258,151.363C317.473,148.648 319.133,147.133 321.492,145.391C323.488,144 323.488,144 324.668,144" style="fill:rgb(20,33,38);fill-rule:nonzero;"/>
    </g>
    <g transform="matrix(0.168928,0,0,0.160667,-36.6709,-18.0177)">
        <path d="M366,138L367,138L367,138.668C366.348,139.145 366.348,139.145 365.422,139.695L364.391,140.316C364.023,140.535 363.652,140.754 363.27,140.98L362.137,141.656C352.984,147.07 352.984,147.07 350,148C349.078,147.992 348.246,147.82 347.332,147.668L347.332,147L348.477,147.086C350.238,147.082 351.512,146.418 353.043,145.605L353.902,145.16C357.734,143.152 361.602,141.023 365.148,138.539L366,138Z" style="fill:rgb(3,5,7);fill-rule:nonzero;"/>
    </g>
    <g transform="matrix(0.168928,0,0,0.160667,-36.6709,-18.0177)">
        <path d="M267,146.668L269,147L269,147.668L268.27,147.707L267.332,148C266.914,148.492 266.496,148.988 266.102,149.5C265.383,150.328 264.695,150.645 263.668,151C262.645,151.133 261.688,151.145 260.668,151C259.563,150.5 259.563,150.5 258.668,150L257.332,150L256.332,149.668L257.668,148.332C259.332,149 259.332,149 260.125,149.375C261.277,149.758 262.121,149.793 263.332,149.668C264.66,149.152 265.535,148.484 266.48,147.418L267,146.668Z" style="fill:rgb(29,23,29);fill-rule:nonzero;"/>
    </g>
    <g transform="matrix(0.168928,0,0,0.160667,-36.6709,-18.0177)">
        <path d="M347,140.668L347.668,141.332L346.641,141.668C345.355,142.09 344.078,142.508 342.797,142.934C342.246,143.113 341.695,143.293 341.145,143.473C337.984,144.508 334.898,145.602 331.863,146.969C331,147.332 331,147.332 330.332,147.332L330.332,146.668C335.328,144.387 340.395,142.539 345.668,141L346.398,140.762L347,140.668Z" style="fill:rgb(18,21,4);fill-rule:nonzero;"/>
    </g>
    <g transform="matrix(0.168928,0,0,0.160667,-36.6709,-18.0177)">
        <path d="M304.332,164.332C305.207,164.293 305.207,164.293 306,164.332C304.828,165.727 303.637,167.059 302.332,168.332L301.598,169.09L300.793,169.918L300.027,170.703C299.332,171.332 299.332,171.332 298.332,171.668C298.469,170.848 298.641,170.367 299.152,169.703L299.77,169.059L300.441,168.352L301.145,167.625L301.848,166.891C302.664,166.027 303.496,165.176 304.332,164.332" style="fill:rgb(254,253,230);fill-rule:nonzero;"/>
    </g>
    <g transform="matrix(0.168928,0,0,0.160667,-36.6709,-18.0177)">
        <path d="M297.332,150.668C300.094,151.707 302.215,153.316 304.113,155.57C304.902,156.656 305.41,157.676 305.668,159C305.734,159.906 305.715,160.754 305.668,161.668L304.668,161.668L304.73,160.668C304.719,159.176 304.367,157.98 303.668,156.668C302.285,154.613 300.547,153.402 298.418,152.18L297.668,151.668L297.332,150.668Z" style="fill:rgb(53,48,37);fill-rule:nonzero;"/>
    </g>
    <g transform="matrix(0.168928,0,0,0.160667,-36.6709,-18.0177)">
        <path d="M359,174L360,174C360.504,174.5 360.504,174.5 361.043,175.188C363.176,177.723 365.668,179.309 368.668,180.668C368.395,181.313 368.395,181.313 368,182L367,182.332L367,181.332L367.668,181.332L367.668,180.668L366.855,180.625C364.824,180.125 363.344,178.945 361.809,177.559C360.328,176.117 360.328,176.117 359.668,175.332L359.668,174.668L358.668,174.332L359,174Z" style="fill:rgb(5,4,5);fill-rule:nonzero;"/>
    </g>
    <g transform="matrix(0.168928,0,0,0.160667,-36.6709,-18.0177)">
        <path d="M296.68,162.039L297.875,162.145L299.074,162.25L300,162.332C300.332,163.332 300.332,163.332 300.332,164.668C299.633,164.516 298.93,164.363 298.23,164.207L297.047,163.949C296,163.668 296,163.668 295,163L295,162.332C295.668,162 295.668,162 296.68,162.039" style="fill:rgb(59,47,52);fill-rule:nonzero;"/>
    </g>
    <g transform="matrix(0.168928,0,0,0.160667,-36.6709,-18.0177)">
        <path d="M293.09,295.469L293.668,295.668L292.715,296.094C289.719,297.434 289.719,297.434 287.371,299.652C286.621,301.031 286.129,302.504 285.668,304L285,304C285.113,302.215 285.582,300.918 286.496,299.379C287.66,297.727 289.09,296.727 290.895,295.855C291.75,295.469 292.16,295.301 293.09,295.469" style="fill:rgb(224,209,215);fill-rule:nonzero;"/>
    </g>
    <g transform="matrix(0.168928,0,0,0.160667,-36.6709,-18.0177)">
        <path d="M352.668,140L352.332,141C351.793,141.301 351.793,141.301 351.098,141.547L350.34,141.816L349.543,142.082L348.754,142.367C347.305,142.867 347.305,142.867 346.668,143L345.668,142.668C346.414,142.168 347.191,141.723 348,141.332L347.332,140.668C348.035,140.488 348.734,140.316 349.438,140.145L350.621,139.852C351.668,139.668 351.668,139.668 352.668,140" style="fill:rgb(5,4,5);fill-rule:nonzero;"/>
    </g>
    <g transform="matrix(0.168928,0,0,0.160667,-36.6709,-18.0177)">
        <path d="M294.332,153.332C295.113,153.422 295.891,153.535 296.668,153.668L297.332,154.332L297.332,155.668C296.418,155.895 296.418,155.895 295.332,156C294.543,155.52 294.543,155.52 294,155L294.332,153.332Z" style="fill:rgb(53,48,37);fill-rule:nonzero;"/>
    </g>
    <g transform="matrix(0.168928,0,0,0.160667,-36.6709,-18.0177)">
        <path d="M323,157L328,157L328.332,157.668L324.668,157.668L325.668,158.332L325.668,159.332L322,160L321.668,159.332L324.332,159L323.668,158.375L323,157.668L323,157Z" style="fill:rgb(5,4,5);fill-rule:nonzero;"/>
    </g>
    <g transform="matrix(0.168928,0,0,0.160667,-36.6709,-18.0177)">
        <path d="M360.668,177.332L360.668,178C359.68,178.559 358.695,179.113 357.707,179.668L356.859,180.148L356.043,180.605L355.293,181.027C354.668,181.332 354.668,181.332 354,181.332L354.332,180.332C354.879,179.945 354.879,179.945 355.582,179.578L356.344,179.18L357.145,178.77C357.41,178.633 357.672,178.492 357.941,178.352C359.902,177.332 359.902,177.332 360.668,177.332" style="fill:rgb(13,14,5);fill-rule:nonzero;"/>
    </g>
    <g transform="matrix(0.168928,0,0,0.160667,-36.6709,-18.0177)">
        <path d="M322,159.668L321.668,160.332C320.75,160.492 319.859,160.613 318.938,160.707L318.172,160.797C316.777,160.949 315.41,161.031 314,161L314.668,160C315.742,159.828 315.742,159.828 317.063,159.77L318.367,159.703C319.578,159.672 320.789,159.656 322,159.668" style="fill:rgb(33,26,32);fill-rule:nonzero;"/>
    </g>
    <g transform="matrix(0.168928,0,0,0.160667,-36.6709,-18.0177)">
        <path d="M358.73,135.438L359.461,135.473C360.086,135.512 360.711,135.586 361.332,135.668L362,136.332C360.758,136.746 359.844,136.625 358.543,136.52C357.133,136.41 355.746,136.309 354.332,136.332L354.332,135.668C355.813,135.281 357.219,135.336 358.73,135.438" style="fill:rgb(10,17,20);fill-rule:nonzero;"/>
    </g>
    <g transform="matrix(0.168928,0,0,0.160667,-36.6709,-18.0177)">
        <path d="M362.332,180L362.332,180.668C361.539,181.207 360.727,181.723 359.895,182.207L359.199,182.633C357.91,183.402 357.91,183.402 357.332,183.668L356.332,183.668L356.332,183C357.207,182.5 358.082,182 358.957,181.5C359.207,181.355 359.457,181.215 359.711,181.066L360.434,180.656L361.102,180.273C361.668,180 361.668,180 362.332,180" style="fill:rgb(5,4,5);fill-rule:nonzero;"/>
    </g>
    <g transform="matrix(0.168928,0,0,0.160667,-36.6709,-18.0177)">
        <path d="M326.332,167.668L327,167.668L326.668,168.668C325.68,169.16 324.723,169.117 323.625,169.188L322.332,169.273L321.332,169.332L321.668,168.332L322.602,168.273L323.813,168.188L325.02,168.105L326,168L326.332,167.668Z" style="fill:rgb(22,18,11);fill-rule:nonzero;"/>
    </g>
    <g transform="matrix(0.168928,0,0,0.160667,-36.6709,-18.0177)">
        <path d="M299.668,163.332L303.332,163.668L303,165C300.98,164.871 300.98,164.871 300.332,164.668L299.668,163.332Z" style="fill:rgb(43,46,31);fill-rule:nonzero;"/>
    </g>
    <g transform="matrix(0.168928,0,0,0.160667,-36.6709,-18.0177)">
        <path d="M333,155.332L333.668,156C333.094,156.281 332.516,156.559 331.938,156.832L330.965,157.301C330.004,157.664 329.348,157.742 328.332,157.668L328,157L329.188,156.73C330.535,156.395 331.738,155.91 333,155.332" style="fill:rgb(10,17,20);fill-rule:nonzero;"/>
    </g>
    <g transform="matrix(0.168928,0,0,0.160667,-36.6709,-18.0177)">
        <path d="M258,200L259,200C258.793,200.582 258.793,200.582 258.332,201.332C257.355,202.105 257.355,202.105 256.332,202.668L255.332,202.332C256.168,201.469 256.984,200.656 258,200" style="fill:rgb(33,26,32);fill-rule:nonzero;"/>
    </g>
    <g transform="matrix(0.168928,0,0,0.160667,-36.6709,-18.0177)">
        <path d="M336.332,151L335,152L336,152.668L336,153.332C335.043,153.082 335.043,153.082 334,152.668C333.543,151.957 333.543,151.957 333.332,151.332C334.32,150.84 335.246,150.98 336.332,151" style="fill:rgb(10,17,20);fill-rule:nonzero;"/>
    </g>
    <g transform="matrix(0.168928,0,0,0.160667,-36.6709,-18.0177)">
        <path d="M267,219.668L267.563,219.957C268.645,220.484 269.766,220.902 270.887,221.332C271.668,221.668 271.668,221.668 272.668,222.332C272.145,222.563 272.145,222.563 271.332,222.668C269.563,222.078 268.363,221.266 267,220L267,219.668Z" style="fill:rgb(229,199,199);fill-rule:nonzero;"/>
    </g>
    <g transform="matrix(0.168928,0,0,0.160667,-36.6709,-18.0177)">
        <path d="M258.668,198.668L259.332,199C258.863,199.441 258.391,199.879 257.918,200.313L257.121,201.051C256.371,201.637 255.93,201.867 255,202L255.332,201C256.094,200.391 256.094,200.391 257.02,199.77L257.949,199.141L258.668,198.668Z" style="fill:rgb(147,207,223);fill-rule:nonzero;"/>
    </g>
    <g transform="matrix(0.168928,0,0,0.160667,-36.6709,-18.0177)">
        <path d="M332,172.668L332.668,172.668L332.332,173.668C332.258,174.352 332.195,175.039 332.145,175.73L332.063,176.828L332,177.668L331.332,177.332C331.316,176.68 331.301,176.027 331.293,175.375L331.27,174.273L331.332,173.332L332,172.668Z" style="fill:rgb(27,29,9);fill-rule:nonzero;"/>
    </g>
    <g transform="matrix(0.168928,0,0,0.160667,-36.6709,-18.0177)">
        <path d="M265.332,292.668C266.332,293 266.332,293 266.832,293.508L267.332,294.125C267.969,294.902 268.613,295.633 269.332,296.332C268.297,296.215 267.824,295.875 266.957,295.25C266,294.332 266,294.332 265.543,293.395L265.332,292.668Z" style="fill:rgb(229,199,199);fill-rule:nonzero;"/>
    </g>
    <g transform="matrix(0.168928,0,0,0.160667,-36.6709,-18.0177)">
        <path d="M297.332,150.668C298.926,151.215 300.266,152.09 301.668,153L300.668,153.668C300.172,153.355 299.68,153.043 299.188,152.73L298.355,152.203L297.668,151.668L297.332,150.668Z" style="fill:rgb(37,33,26);fill-rule:nonzero;"/>
    </g>
    <g transform="matrix(0.168928,0,0,0.160667,-36.6709,-18.0177)">
        <path d="M286.332,300L287,300.332L285.668,304L285,304C285.156,302.406 285.414,301.32 286.332,300M261.332,191L262.332,191.332C262.297,192.16 262.254,192.984 262.207,193.813C262.199,194.047 262.188,194.285 262.176,194.527C262.141,195.129 262.074,195.734 262,196.332L261.332,196.668L261.332,191ZM272,259.668C273.07,260.137 273.773,260.699 274.582,261.543L275.203,262.18L275.668,262.668L274.668,262.668C273.422,261.828 272.699,260.988 272,259.668" style="fill:rgb(229,199,199);fill-rule:nonzero;"/>
    </g>
    <g transform="matrix(0.168928,0,0,0.160667,-36.6709,-18.0177)">
        <path d="M340.332,202.668C342.383,202.863 342.383,202.863 343,203L343.332,203.668L342.668,203.668L342.668,204.332C341.875,204.25 341.875,204.25 341,204C340.563,203.313 340.563,203.313 340.332,202.668" style="fill:rgb(242,234,163);fill-rule:nonzero;"/>
    </g>
    <g transform="matrix(0.168928,0,0,0.160667,-36.6709,-18.0177)">
        <path d="M315.332,294L316.332,294L318,297.332L316.668,296.668C316.246,296.02 316.246,296.02 315.918,295.293L315.578,294.559L315.332,294Z" style="fill:rgb(229,199,199);fill-rule:nonzero;"/>
    </g>
    <g transform="matrix(0.168928,0,0,0.160667,-36.6709,-18.0177)">
        <path d="M366.668,180L368.668,180.668C368.395,181.313 368.395,181.313 368,182L367,182.332L367,181.332L367.668,181.332L367.668,180.668L366.668,180.668L366.668,180Z" style="fill:rgb(31,25,30);fill-rule:nonzero;"/>
    </g>
    <g transform="matrix(0.168928,0,0,0.160667,-36.6709,-18.0177)">
        <path d="M333,147.332L333.668,148L330.332,149.332L330,148.668L333,147.332Z" style="fill:rgb(5,4,5);fill-rule:nonzero;"/>
    </g>
    <g transform="matrix(0.168928,0,0,0.160667,-36.6709,-18.0177)">
        <path d="M340.332,207.332C340.891,207.32 341.445,207.32 342,207.332L341.332,207.668L341.332,209L340.332,209C340.145,208.355 340.145,208.355 340,207.668L340.332,207.332Z" style="fill:rgb(242,234,164);fill-rule:nonzero;"/>
    </g>
    <g transform="matrix(0.168928,0,0,0.160667,-36.6709,-18.0177)">
        <path d="M334.332,170.332L335.332,170.332C335.27,170.957 335.27,170.957 335,171.668C334.145,172.082 334.145,172.082 333.332,172.332L333.668,171.332L334.332,171.332L334.332,170.332Z" style="fill:rgb(45,39,14);fill-rule:nonzero;"/>
    </g>
    <g transform="matrix(0.168928,0,0,0.160667,-36.6709,-18.0177)">
        <path d="M328.332,164.668L329.668,165L330,166.668C329.168,166.23 329.168,166.23 328.332,165.668L328.332,164.668Z" style="fill:rgb(5,4,5);fill-rule:nonzero;"/>
    </g>
    <g transform="matrix(0.168928,0,0,0.160667,-36.6709,-18.0177)">
        <path d="M282,277.668L283,278C283.563,279.188 283.563,279.188 284,280.332L283,280.332L282,277.668Z" style="fill:rgb(225,196,201);fill-rule:nonzero;"/>
    </g>
    <g transform="matrix(0.168928,0,0,0.160667,-36.6709,-18.0177)">
        <path d="M359,135.668C360.125,135.625 360.125,135.625 361.332,135.668L362,136.332L361,136.668C359.938,136.355 359.938,136.355 359,136L359,135.668Z" style="fill:rgb(10,8,8);fill-rule:nonzero;"/>
    </g>
</svg>
